<svg id="Layer_1" data-name="Layer 1" xmlns="http://www.w3.org/2000/svg" viewBox="0 0 520 256">
  <g>
    <path d="m55.13,137.23h-17.76l-5.09,17.96h-12l20.17-67.22h12.48l19.2,67.22h-12l-4.99-17.96Zm-2.88-10.37l-4.99-17.96,1.82-6.72h-1.63l-7.11,24.68h11.91Z" fill="var(--vscode-foreground)"/>
    <path d="m125.32,99.49h-15.17v44.17h15.17v11.52h-41.96v-11.52h15.27v-44.17h-15.27v-11.52h41.96v11.52Z" fill="var(--vscode-foreground)"/>
  </g>
  <g>
    <path d="m379.67,99.66h-15.17v44.17h15.17v11.52h-41.96v-11.52h15.27v-44.17h-15.27v-11.52h41.96v11.52Z" fill="var(--vscode-foreground)"/>
    <path d="m392.72,88.14h19.78c18.15,0,28.62,13.73,28.62,33.7s-10.08,33.51-28.62,33.51h-19.78v-67.22Zm19.78,55.69c12.39,0,17.09-12.48,17.09-21.99,0-10.08-4.71-22.18-17.09-22.18h-8.26v44.17h8.26Z" fill="var(--vscode-foreground)"/>
    <path d="m486.73,125.58h-21.61v17.76h29.29v12h-41.29v-67.22h41.29v12h-29.29v13.92h21.61v11.52Z" fill="var(--vscode-foreground)"/>
  </g>
  <g>
    <rect x="153" y="82" width="156" height="80" rx="39.93" ry="39.93" fill="#009245" />
    <circle cx="195" cy="122" r="32" fill="#39b54a" />
  </g>
</svg>
