<svg xmlns="http://www.w3.org/2000/svg" xmlns:xlink="http://www.w3.org/1999/xlink">
  <defs>
		<svg viewBox="0 0 24 24" fill="currentColor" id="solid/list-bullet">
		  <path fill-rule="evenodd" d="M2.625 6.75a1.125 1.125 0 1 1 2.25 0 1.125 1.125 0 0 1-2.25 0Zm4.875 0A.75.75 0 0 1 8.25 6h12a.75.75 0 0 1 0 1.5h-12a.75.75 0 0 1-.75-.75ZM2.625 12a1.125 1.125 0 1 1 2.25 0 1.125 1.125 0 0 1-2.25 0ZM7.5 12a.75.75 0 0 1 .75-.75h12a.75.75 0 0 1 0 1.5h-12A.75.75 0 0 1 7.5 12Zm-4.875 5.25a1.125 1.125 0 1 1 2.25 0 1.125 1.125 0 0 1-2.25 0Zm4.875 0a.75.75 0 0 1 .75-.75h12a.75.75 0 0 1 0 1.5h-12a.75.75 0 0 1-.75-.75Z" clip-rule="evenodd" />
		</svg>
		<svg viewBox="0 0 16 16" fill="currentColor" id="micro/list-bullet">
		  <path fill-rule="evenodd" d="M4.78 4.97a.75.75 0 0 1 0 1.06L2.81 8l1.97 1.97a.75.75 0 1 1-1.06 1.06l-2.5-2.5a.75.75 0 0 1 0-1.06l2.5-2.5a.75.75 0 0 1 1.06 0ZM11.22 4.97a.75.75 0 0 0 0 1.06L13.19 8l-1.97 1.97a.75.75 0 1 0 1.06 1.06l2.5-2.5a.75.75 0 0 0 0-1.06l-2.5-2.5a.75.75 0 0 0-1.06 0ZM8.856 2.008a.75.75 0 0 1 .636.848l-1.5 10.5a.75.75 0 0 1-1.484-.212l1.5-10.5a.75.75 0 0 1 .848-.636Z" clip-rule="evenodd" />
		</svg>
		<svg viewBox="0 0 16 16" fill="currentColor" id="micro/code-bracket">
		  <path d="M3 4.75a1 1 0 1 0 0-2 1 1 0 0 0 0 2ZM6.25 3a.75.75 0 0 0 0 1.5h7a.75.75 0 0 0 0-1.5h-7ZM6.25 7.25a.75.75 0 0 0 0 1.5h7a.75.75 0 0 0 0-1.5h-7ZM6.25 11.5a.75.75 0 0 0 0 1.5h7a.75.75 0 0 0 0-1.5h-7ZM4 12.25a1 1 0 1 1-2 0 1 1 0 0 1 2 0ZM3 9a1 1 0 1 0 0-2 1 1 0 0 0 0 2Z" />
		</svg>
		<svg viewBox="0 0 16 16" fill="currentColor" id="micro/chevron-down">
		  <path fill-rule="evenodd" d="M4.22 6.22a.75.75 0 0 1 1.06 0L8 8.94l2.72-2.72a.75.75 0 1 1 1.06 1.06l-3.25 3.25a.75.75 0 0 1-1.06 0L4.22 7.28a.75.75 0 0 1 0-1.06Z" clip-rule="evenodd" />
		</svg>
		<svg viewBox="0 0 16 16" fill="currentColor" id="micro/bolt">
		  <path fill-rule="evenodd" d="M9.58 1.077a.75.75 0 0 1 .405.82L9.165 6h4.085a.75.75 0 0 1 .567 1.241l-6.5 7.5a.75.75 0 0 1-1.302-.638L6.835 10H2.75a.75.75 0 0 1-.567-1.241l6.5-7.5a.75.75 0 0 1 .897-.182Z" clip-rule="evenodd" />
		</svg>
		<svg viewBox="0 0 20 20" fill="currentColor" id="mini/square-3-stack-3d">
		  <path d="m3.196 12.87-.825.483a.75.75 0 0 0 0 1.294l7.25 4.25a.75.75 0 0 0 .758 0l7.25-4.25a.75.75 0 0 0 0-1.294l-.825-.484-5.666 3.322a2.25 2.25 0 0 1-2.276 0L3.196 12.87Z" />
		  <path d="m3.196 8.87-.825.483a.75.75 0 0 0 0 1.294l7.25 4.25a.75.75 0 0 0 .758 0l7.25-4.25a.75.75 0 0 0 0-1.294l-.825-.484-5.666 3.322a2.25 2.25 0 0 1-2.276 0L3.196 8.87Z" />
		  <path d="M10.38 1.103a.75.75 0 0 0-.76 0l-7.25 4.25a.75.75 0 0 0 0 1.294l7.25 4.25a.75.75 0 0 0 .76 0l7.25-4.25a.75.75 0 0 0 0-1.294l-7.25-4.25Z" />
		</svg>
		<svg viewBox="0 0 20 20" fill="currentColor" id="mini/document">
		  <path d="M3 3.5A1.5 1.5 0 0 1 4.5 2h6.879a1.5 1.5 0 0 1 1.06.44l4.122 4.12A1.5 1.5 0 0 1 17 7.622V16.5a1.5 1.5 0 0 1-1.5 1.5h-11A1.5 1.5 0 0 1 3 16.5v-13Z" />
		</svg>
		<svg viewBox="0 0 20 20" fill="currentColor" id="mini/paper-clip">
		  <path fill-rule="evenodd" d="M15.621 4.379a3 3 0 0 0-4.242 0l-7 7a3 3 0 0 0 4.241 4.243h.001l.497-.5a.75.75 0 0 1 1.064 1.057l-.498.501-.002.002a4.5 4.5 0 0 1-6.364-6.364l7-7a4.5 4.5 0 0 1 6.368 6.36l-3.455 3.553A2.625 2.625 0 1 1 9.52 9.52l3.45-3.451a.75.75 0 1 1 1.061 1.06l-3.45 3.451a1.125 1.125 0 0 0 1.587 1.595l3.454-3.553a3 3 0 0 0 0-4.242Z" clip-rule="evenodd" />
		</svg>
		<svg viewBox="0 0 20 20" fill="currentColor" id="mini/play">
		  <path d="M6.3 2.84A1.5 1.5 0 0 0 4 4.11v11.78a1.5 1.5 0 0 0 2.3 1.27l9.344-5.891a1.5 1.5 0 0 0 0-2.538L6.3 2.841Z" />
		</svg>
		<svg xmlns="http://www.w3.org/2000/svg" viewBox="0 0 20 20" fill="currentColor" id="mini/stop">
		  <path d="M5.25 3A2.25 2.25 0 0 0 3 5.25v9.5A2.25 2.25 0 0 0 5.25 17h9.5A2.25 2.25 0 0 0 17 14.75v-9.5A2.25 2.25 0 0 0 14.75 3h-9.5Z" />
		</svg>
	</defs>
</svg>
