<svg xmlns="http://www.w3.org/2000/svg" xmlns:xlink="http://www.w3.org/1999/xlink">
  <defs>
		<svg viewBox="0 0 20 20" fill="currentColor" id="mini/square-3-stack-3d">
		  <path d="m3.196 12.87-.825.483a.75.75 0 0 0 0 1.294l7.25 4.25a.75.75 0 0 0 .758 0l7.25-4.25a.75.75 0 0 0 0-1.294l-.825-.484-5.666 3.322a2.25 2.25 0 0 1-2.276 0L3.196 12.87Z" />
		  <path d="m3.196 8.87-.825.483a.75.75 0 0 0 0 1.294l7.25 4.25a.75.75 0 0 0 .758 0l7.25-4.25a.75.75 0 0 0 0-1.294l-.825-.484-5.666 3.322a2.25 2.25 0 0 1-2.276 0L3.196 8.87Z" />
		  <path d="M10.38 1.103a.75.75 0 0 0-.76 0l-7.25 4.25a.75.75 0 0 0 0 1.294l7.25 4.25a.75.75 0 0 0 .76 0l7.25-4.25a.75.75 0 0 0 0-1.294l-7.25-4.25Z" />
		</svg>
		<svg viewBox="0 0 20 20" fill="currentColor" id="mini/document">
		  <path d="M3 3.5A1.5 1.5 0 0 1 4.5 2h6.879a1.5 1.5 0 0 1 1.06.44l4.122 4.12A1.5 1.5 0 0 1 17 7.622V16.5a1.5 1.5 0 0 1-1.5 1.5h-11A1.5 1.5 0 0 1 3 16.5v-13Z" />
		</svg>
		<svg viewBox="0 0 20 20" fill="currentColor" id="mini/paper-clip">
		  <path fill-rule="evenodd" d="M15.621 4.379a3 3 0 0 0-4.242 0l-7 7a3 3 0 0 0 4.241 4.243h.001l.497-.5a.75.75 0 0 1 1.064 1.057l-.498.501-.002.002a4.5 4.5 0 0 1-6.364-6.364l7-7a4.5 4.5 0 0 1 6.368 6.36l-3.455 3.553A2.625 2.625 0 1 1 9.52 9.52l3.45-3.451a.75.75 0 1 1 1.061 1.06l-3.45 3.451a1.125 1.125 0 0 0 1.587 1.595l3.454-3.553a3 3 0 0 0 0-4.242Z" clip-rule="evenodd" />
		</svg>
	</defs>
</svg>
