<svg xmlns="http://www.w3.org/2000/svg" xmlns:xlink="http://www.w3.org/1999/xlink">
  <defs>
		<svg viewBox="0 0 24 24" fill="currentColor" id="solid/list-bullet">
		  <path fill-rule="evenodd" d="M2.625 6.75a1.125 1.125 0 1 1 2.25 0 1.125 1.125 0 0 1-2.25 0Zm4.875 0A.75.75 0 0 1 8.25 6h12a.75.75 0 0 1 0 1.5h-12a.75.75 0 0 1-.75-.75ZM2.625 12a1.125 1.125 0 1 1 2.25 0 1.125 1.125 0 0 1-2.25 0ZM7.5 12a.75.75 0 0 1 .75-.75h12a.75.75 0 0 1 0 1.5h-12A.75.75 0 0 1 7.5 12Zm-4.875 5.25a1.125 1.125 0 1 1 2.25 0 1.125 1.125 0 0 1-2.25 0Zm4.875 0a.75.75 0 0 1 .75-.75h12a.75.75 0 0 1 0 1.5h-12a.75.75 0 0 1-.75-.75Z" clip-rule="evenodd" />
		</svg>
		<svg viewBox="0 0 16 16" fill="currentColor" id="micro/code-bracket">
		  <path fill-rule="evenodd" d="M4.78 4.97a.75.75 0 0 1 0 1.06L2.81 8l1.97 1.97a.75.75 0 1 1-1.06 1.06l-2.5-2.5a.75.75 0 0 1 0-1.06l2.5-2.5a.75.75 0 0 1 1.06 0ZM11.22 4.97a.75.75 0 0 0 0 1.06L13.19 8l-1.97 1.97a.75.75 0 1 0 1.06 1.06l2.5-2.5a.75.75 0 0 0 0-1.06l-2.5-2.5a.75.75 0 0 0-1.06 0ZM8.856 2.008a.75.75 0 0 1 .636.848l-1.5 10.5a.75.75 0 0 1-1.484-.212l1.5-10.5a.75.75 0 0 1 .848-.636Z" clip-rule="evenodd" />
		</svg>
		<svg viewBox="0 0 16 16" fill="currentColor" id="micro/list-bullet">
		  <path d="M3 4.75a1 1 0 1 0 0-2 1 1 0 0 0 0 2ZM6.25 3a.75.75 0 0 0 0 1.5h7a.75.75 0 0 0 0-1.5h-7ZM6.25 7.25a.75.75 0 0 0 0 1.5h7a.75.75 0 0 0 0-1.5h-7ZM6.25 11.5a.75.75 0 0 0 0 1.5h7a.75.75 0 0 0 0-1.5h-7ZM4 12.25a1 1 0 1 1-2 0 1 1 0 0 1 2 0ZM3 9a1 1 0 1 0 0-2 1 1 0 0 0 0 2Z" />
		</svg>
		<svg viewBox="0 0 16 16" fill="currentColor" id="micro/chevron-down">
		  <path fill-rule="evenodd" d="M4.22 6.22a.75.75 0 0 1 1.06 0L8 8.94l2.72-2.72a.75.75 0 1 1 1.06 1.06l-3.25 3.25a.75.75 0 0 1-1.06 0L4.22 7.28a.75.75 0 0 1 0-1.06Z" clip-rule="evenodd" />
		</svg>
		<svg viewBox="0 0 16 16" fill="currentColor" id="micro/stop">
		  <rect width="10" height="10" x="3" y="3" rx="1.5" />
		</svg>
		<svg viewBox="0 0 16 16" fill="currentColor" id="micro/chevron-down">
		  <path fill-rule="evenodd" d="M4.22 6.22a.75.75 0 0 1 1.06 0L8 8.94l2.72-2.72a.75.75 0 1 1 1.06 1.06l-3.25 3.25a.75.75 0 0 1-1.06 0L4.22 7.28a.75.75 0 0 1 0-1.06Z" clip-rule="evenodd" />
		</svg>
		<svg viewBox="0 0 16 16" fill="currentColor" id="micro/bolt">
		  <path fill-rule="evenodd" d="M9.58 1.077a.75.75 0 0 1 .405.82L9.165 6h4.085a.75.75 0 0 1 .567 1.241l-6.5 7.5a.75.75 0 0 1-1.302-.638L6.835 10H2.75a.75.75 0 0 1-.567-1.241l6.5-7.5a.75.75 0 0 1 .897-.182Z" clip-rule="evenodd" />
		</svg>
		<svg viewBox="0 0 16 16" fill="currentColor" id="micro/plus">
		  <path d="M8.75 3.75a.75.75 0 0 0-1.5 0v3.5h-3.5a.75.75 0 0 0 0 1.5h3.5v3.5a.75.75 0 0 0 1.5 0v-3.5h3.5a.75.75 0 0 0 0-1.5h-3.5v-3.5Z" />
		</svg>
		<svg viewBox="0 0 16 16" fill="currentColor" id="micro/arrow-uturn-left">
		  <path fill-rule="evenodd" d="M12.5 9.75A2.75 2.75 0 0 0 9.75 7H4.56l2.22 2.22a.75.75 0 1 1-1.06 1.06l-3.5-3.5a.75.75 0 0 1 0-1.06l3.5-3.5a.75.75 0 0 1 1.06 1.06L4.56 5.5h5.19a4.25 4.25 0 0 1 0 8.5h-1a.75.75 0 0 1 0-1.5h1a2.75 2.75 0 0 0 2.75-2.75Z" clip-rule="evenodd" />
		</svg>
		<svg viewBox="0 0 16 16" fill="currentColor" id="micro/flag">
		  <path d="M2.75 2a.75.75 0 0 0-.75.75v10.5a.75.75 0 0 0 1.5 0v-2.624l.33-.083A6.044 6.044 0 0 1 8 11c1.29.645 2.77.807 4.17.457l1.48-.37a.462.462 0 0 0 .35-.448V3.56a.438.438 0 0 0-.544-.425l-1.287.322C10.77 3.808 9.291 3.646 8 3a6.045 6.045 0 0 0-4.17-.457l-.34.085A.75.75 0 0 0 2.75 2Z" />
		</svg>
		<svg viewBox="0 0 16 16" fill="currentColor" id="micro/check">
		  <path fill-rule="evenodd" d="M12.416 3.376a.75.75 0 0 1 .208 1.04l-5 7.5a.75.75 0 0 1-1.154.114l-3-3a.75.75 0 0 1 1.06-1.06l2.353 2.353 4.493-6.74a.75.75 0 0 1 1.04-.207Z" clip-rule="evenodd" />
		</svg>
		<svg viewBox="0 0 16 16" fill="currentColor" id="micro/exclamation-triangle">
		  <path fill-rule="evenodd" d="M6.701 2.25c.577-1 2.02-1 2.598 0l5.196 9a1.5 1.5 0 0 1-1.299 2.25H2.804a1.5 1.5 0 0 1-1.3-2.25l5.197-9ZM8 4a.75.75 0 0 1 .75.75v3a.75.75 0 1 1-1.5 0v-3A.75.75 0 0 1 8 4Zm0 8a1 1 0 1 0 0-2 1 1 0 0 0 0 2Z" clip-rule="evenodd" />
		</svg>
		<svg viewBox="0 0 16 16" fill="currentColor" id="micro/trash">
		  <path fill-rule="evenodd" d="M5 3.25V4H2.75a.75.75 0 0 0 0 1.5h.3l.815 8.15A1.5 1.5 0 0 0 5.357 15h5.285a1.5 1.5 0 0 0 1.493-1.35l.815-8.15h.3a.75.75 0 0 0 0-1.5H11v-.75A2.25 2.25 0 0 0 8.75 1h-1.5A2.25 2.25 0 0 0 5 3.25Zm2.25-.75a.75.75 0 0 0-.75.75V4h3v-.75a.75.75 0 0 0-.75-.75h-1.5ZM6.05 6a.75.75 0 0 1 .787.713l.275 5.5a.75.75 0 0 1-1.498.075l-.275-5.5A.75.75 0 0 1 6.05 6Zm3.9 0a.75.75 0 0 1 .712.787l-.275 5.5a.75.75 0 0 1-1.498-.075l.275-5.5a.75.75 0 0 1 .786-.711Z" clip-rule="evenodd" />
		</svg>
		<svg viewBox="0 0 16 16" fill="currentColor" id="micro/x-mark">
		  <path d="M5.28 4.22a.75.75 0 0 0-1.06 1.06L6.94 8l-2.72 2.72a.75.75 0 1 0 1.06 1.06L8 9.06l2.72 2.72a.75.75 0 1 0 1.06-1.06L9.06 8l2.72-2.72a.75.75 0 0 0-1.06-1.06L8 6.94 5.28 4.22Z" />
		</svg>
		<svg viewBox="0 0 16 16" fill="currentColor" id="micro/arrow-path">
		  <path fill-rule="evenodd" d="M13.836 2.477a.75.75 0 0 1 .75.75v3.182a.75.75 0 0 1-.75.75h-3.182a.75.75 0 0 1 0-1.5h1.37l-.84-.841a4.5 4.5 0 0 0-7.08.932.75.75 0 0 1-1.3-.75 6 6 0 0 1 9.44-1.242l.842.84V3.227a.75.75 0 0 1 .75-.75Zm-.911 7.5A.75.75 0 0 1 13.199 11a6 6 0 0 1-9.44 1.241l-.84-.84v1.371a.75.75 0 0 1-1.5 0V9.591a.75.75 0 0 1 .75-.75H5.35a.75.75 0 0 1 0 1.5H3.98l.841.841a4.5 4.5 0 0 0 7.08-.932.75.75 0 0 1 1.025-.273Z" clip-rule="evenodd" />
		</svg>
		<svg viewBox="0 0 16 16" fill="currentColor" id="micro/x-circle">
		  <path fill-rule="evenodd" d="M8 15A7 7 0 1 0 8 1a7 7 0 0 0 0 14Zm2.78-4.22a.75.75 0 0 1-1.06 0L8 9.06l-1.72 1.72a.75.75 0 1 1-1.06-1.06L6.94 8 5.22 6.28a.75.75 0 0 1 1.06-1.06L8 6.94l1.72-1.72a.75.75 0 1 1 1.06 1.06L9.06 8l1.72 1.72a.75.75 0 0 1 0 1.06Z" clip-rule="evenodd" />
		</svg>
		<svg viewBox="0 0 16 16" fill="currentColor" id="micro/pencil">
		  <path fill-rule="evenodd" d="M11.013 2.513a1.75 1.75 0 0 1 2.475 2.474L6.226 12.25a2.751 2.751 0 0 1-.892.596l-2.047.848a.75.75 0 0 1-.98-.98l.848-2.047a2.75 2.75 0 0 1 .596-.892l7.262-7.261Z" clip-rule="evenodd" />
		</svg>
		<svg width="16" height="16" fill="currentColor" id="micro/dashed-circle">
			<path fill-rule="evenodd" clip-rule="evenodd" d="M14.9408 8.91426L13.9492 8.78492C13.9827 8.52847 14 8.26651 14 8C14 7.73349 13.9827 7.47153 13.9492 7.21508L14.9408 7.08574C14.9799 7.38496 15 7.69013 15 8C15 8.30987 14.9799 8.61504 14.9408 8.91426ZM14.4688 5.32049L13.5451 5.70354C13.3431 5.2163 13.0784 4.76102 12.7609 4.34784L13.5538 3.73851C13.9239 4.22019 14.2328 4.7514 14.4688 5.32049ZM12.2615 2.4462L11.6522 3.23912C11.239 2.92161 10.7837 2.65694 10.2965 2.45489L10.6795 1.53116C11.2486 1.76715 11.7798 2.07605 12.2615 2.4462ZM8.91426 1.05917L8.78492 2.05077C8.52847 2.01731 8.26651 2 8 2C7.73349 2 7.47153 2.01731 7.21508 2.05077L7.08573 1.05917C7.38496 1.02013 7.69013 1 8 1C8.30987 1 8.61504 1.02013 8.91426 1.05917ZM5.32049 1.53116L5.70354 2.45489C5.2163 2.65694 4.76102 2.92161 4.34784 3.23912L3.73851 2.4462C4.22019 2.07605 4.7514 1.76715 5.32049 1.53116ZM2.4462 3.73851L3.23912 4.34784C2.92161 4.76102 2.65694 5.2163 2.45489 5.70354L1.53116 5.32049C1.76715 4.7514 2.07605 4.22019 2.4462 3.73851ZM1.05917 7.08574C1.02013 7.38496 1 7.69013 1 8C1 8.30987 1.02013 8.61504 1.05917 8.91427L2.05077 8.78492C2.01731 8.52847 2 8.26651 2 8C2 7.73349 2.01731 7.47153 2.05077 7.21508L1.05917 7.08574ZM1.53116 10.6795L2.45489 10.2965C2.65694 10.7837 2.92161 11.239 3.23912 11.6522L2.4462 12.2615C2.07605 11.7798 1.76715 11.2486 1.53116 10.6795ZM3.73851 13.5538L4.34784 12.7609C4.76102 13.0784 5.2163 13.3431 5.70354 13.5451L5.32049 14.4688C4.7514 14.2328 4.22019 13.924 3.73851 13.5538ZM7.08574 14.9408L7.21508 13.9492C7.47153 13.9827 7.73349 14 8 14C8.26651 14 8.52847 13.9827 8.78492 13.9492L8.91426 14.9408C8.61504 14.9799 8.30987 15 8 15C7.69013 15 7.38496 14.9799 7.08574 14.9408ZM10.6795 14.4688L10.2965 13.5451C10.7837 13.3431 11.239 13.0784 11.6522 12.7609L12.2615 13.5538C11.7798 13.9239 11.2486 14.2328 10.6795 14.4688ZM13.5538 12.2615L12.7609 11.6522C13.0784 11.239 13.3431 10.7837 13.5451 10.2965L14.4688 10.6795C14.2328 11.2486 13.924 11.7798 13.5538 12.2615Z" />
		</svg>
		<svg viewBox="0 0 16 16" fill="currentColor" id="micro/cog-6-tooth">
		  <path fill-rule="evenodd" d="M6.455 1.45A.5.5 0 0 1 6.952 1h2.096a.5.5 0 0 1 .497.45l.186 1.858a4.996 4.996 0 0 1 1.466.848l1.703-.769a.5.5 0 0 1 .639.206l1.047 1.814a.5.5 0 0 1-.14.656l-1.517 1.09a5.026 5.026 0 0 1 0 1.694l1.516 1.09a.5.5 0 0 1 .141.656l-1.047 1.814a.5.5 0 0 1-.639.206l-1.703-.768c-.433.36-.928.649-1.466.847l-.186 1.858a.5.5 0 0 1-.497.45H6.952a.5.5 0 0 1-.497-.45l-.186-1.858a4.993 4.993 0 0 1-1.466-.848l-1.703.769a.5.5 0 0 1-.639-.206l-1.047-1.814a.5.5 0 0 1 .14-.656l1.517-1.09a5.033 5.033 0 0 1 0-1.694l-1.516-1.09a.5.5 0 0 1-.141-.656L2.46 3.593a.5.5 0 0 1 .639-.206l1.703.769c.433-.36.928-.65 1.466-.848l.186-1.858Zm-.177 7.567-.022-.037a2 2 0 0 1 3.466-1.997l.022.037a2 2 0 0 1-3.466 1.997Z" clip-rule="evenodd" />
		</svg>
		<svg viewBox="0 0 20 20" fill="currentColor" id="mini/square-3-stack-3d">
		  <path d="m3.196 12.87-.825.483a.75.75 0 0 0 0 1.294l7.25 4.25a.75.75 0 0 0 .758 0l7.25-4.25a.75.75 0 0 0 0-1.294l-.825-.484-5.666 3.322a2.25 2.25 0 0 1-2.276 0L3.196 12.87Z" />
		  <path d="m3.196 8.87-.825.483a.75.75 0 0 0 0 1.294l7.25 4.25a.75.75 0 0 0 .758 0l7.25-4.25a.75.75 0 0 0 0-1.294l-.825-.484-5.666 3.322a2.25 2.25 0 0 1-2.276 0L3.196 8.87Z" />
		  <path d="M10.38 1.103a.75.75 0 0 0-.76 0l-7.25 4.25a.75.75 0 0 0 0 1.294l7.25 4.25a.75.75 0 0 0 .76 0l7.25-4.25a.75.75 0 0 0 0-1.294l-7.25-4.25Z" />
		</svg>
		<svg viewBox="0 0 20 20" fill="currentColor" id="mini/document">
		  <path d="M3 3.5A1.5 1.5 0 0 1 4.5 2h6.879a1.5 1.5 0 0 1 1.06.44l4.122 4.12A1.5 1.5 0 0 1 17 7.622V16.5a1.5 1.5 0 0 1-1.5 1.5h-11A1.5 1.5 0 0 1 3 16.5v-13Z" />
		</svg>
		<svg viewBox="0 0 20 20" fill="currentColor" id="mini/paper-clip">
		  <path fill-rule="evenodd" d="M15.621 4.379a3 3 0 0 0-4.242 0l-7 7a3 3 0 0 0 4.241 4.243h.001l.497-.5a.75.75 0 0 1 1.064 1.057l-.498.501-.002.002a4.5 4.5 0 0 1-6.364-6.364l7-7a4.5 4.5 0 0 1 6.368 6.36l-3.455 3.553A2.625 2.625 0 1 1 9.52 9.52l3.45-3.451a.75.75 0 1 1 1.061 1.06l-3.45 3.451a1.125 1.125 0 0 0 1.587 1.595l3.454-3.553a3 3 0 0 0 0-4.242Z" clip-rule="evenodd" />
		</svg>
		<svg viewBox="0 0 16 16" fill="currentColor" id="micro/check-circle">
		  <path fill-rule="evenodd" d="M8 15A7 7 0 1 0 8 1a7 7 0 0 0 0 14Zm3.844-8.791a.75.75 0 0 0-1.188-.918l-3.7 4.79-1.649-1.833a.75.75 0 1 0-1.114 1.004l2.25 2.5a.75.75 0 0 0 1.15-.043l4.25-5.5Z" clip-rule="evenodd" />
		</svg>
		<svg viewBox="0 0 20 20" fill="currentColor" id="mini/play">
		  <path d="M6.3 2.84A1.5 1.5 0 0 0 4 4.11v11.78a1.5 1.5 0 0 0 2.3 1.27l9.344-5.891a1.5 1.5 0 0 0 0-2.538L6.3 2.841Z" />
		</svg>
		<svg viewBox="0 0 20 20" fill="currentColor" id="mini/stop">
		  <path d="M5.25 3A2.25 2.25 0 0 0 3 5.25v9.5A2.25 2.25 0 0 0 5.25 17h9.5A2.25 2.25 0 0 0 17 14.75v-9.5A2.25 2.25 0 0 0 14.75 3h-9.5Z" />
		</svg>
		<svg width="20" height="20" viewBox="0 0 20 20" fill="currentColor" id="mini/cursor-selection" >
			<path fill-rule="evenodd" clip-rule="evenodd" d="M3 2C2.44772 2 2 2.44772 2 3C2 3.55228 2.44772 4 3 4H5L5 16H3C2.44772 16 2 16.4477 2 17C2 17.5523 2.44772 18 3 18H9C9.55229 18 10 17.5523 10 17C10 16.4477 9.55229 16 9 16H7L7 4H9C9.55229 4 10 3.55228 10 3C10 2.44772 9.55229 2 9 2H3ZM9.5 6C9.22386 6 9 6.22386 9 6.5V13.5C9 13.7761 9.22386 14 9.5 14H20V6H9.5Z" />
		</svg>
	</defs>
</svg>
