<?xml version="1.0" encoding="UTF-8" standalone="no"?>
<!DOCTYPE svg PUBLIC "-//W3C//DTD SVG 1.1//EN" "http://www.w3.org/Graphics/SVG/1.1/DTD/svg11.dtd">
<svg xmlns="http://www.w3.org/2000/svg" version="1.1" viewBox="0.00 0.00 390.00 384.00">
<g stroke-width="2.00" fill="none" stroke-linecap="butt">
<path stroke="#331865" vector-effect="non-scaling-stroke" d="
  M 45.64 299.51
  Q 45.74 300.05 46.35 300.87
  Q 77.83 343.14 126.36 363.32"
/>
<path stroke="#848484" vector-effect="non-scaling-stroke" d="
  M 126.36 363.32
  L 141.57 368.73"
/>
<path stroke="#331865" vector-effect="non-scaling-stroke" d="
  M 141.57 368.73
  Q 155.53 372.89 169.82 375.10
  Q 170.42 375.19 170.42 374.58
  Q 170.48 360.75 172.40 346.45"
/>
<path stroke="#848484" vector-effect="non-scaling-stroke" d="
  M 172.40 346.45
  Q 178.19 347.81 183.68 347.42"
/>
<path stroke="#331865" vector-effect="non-scaling-stroke" d="
  M 183.68 347.42
  Q 184.90 361.12 184.20 375.37
  A 1.29 1.29 0.0 0 0 185.44 376.73
  C 241.61 379.22 292.39 358.85 331.28 318.39
  A 0.51 0.51 0.0 0 0 331.18 317.61
  C 314.64 307.20 290.23 304.15 275.35 318.86
  Q 266.58 327.54 258.92 333.82"
/>
<path stroke="#7a3080" vector-effect="non-scaling-stroke" d="
  M 258.92 333.82
  C 260.39 326.82 260.99 319.94 262.93 313.22
  C 267.11 298.72 285.98 292.10 300.01 290.46
  C 314.59 288.76 329.55 288.11 342.99 282.18"
/>
<path stroke="#69832c" vector-effect="non-scaling-stroke" d="
  M 342.99 282.18
  Q 347.23 288.24 349.48 294.78
  A 0.33 0.32 52.3 0 0 350.06 294.86
  Q 368.39 267.25 376.07 235.21
  C 405.59 112.10 306.13 -4.27 180.01 6.93
  C 81.14 15.72 7.44 100.12 11.02 199.25
  Q 12.86 250.50 42.18 294.77
  Q 43.64 296.97 45.64 299.51"
/>
<path stroke="#daaba4" vector-effect="non-scaling-stroke" d="
  M 342.99 282.18
  Q 347.97 279.28 348.85 273.90
  C 349.64 268.99 349.64 262.65 347.14 258.05
  C 345.39 254.83 340.80 254.84 339.20 251.86
  C 337.20 248.16 344.91 236.81 345.18 231.70
  Q 345.37 227.92 343.64 225.15"
/>
<path stroke="#69832c" vector-effect="non-scaling-stroke" d="
  M 343.64 225.15
  Q 339.93 217.58 334.22 213.52"
/>
<path stroke="#d9cb47" vector-effect="non-scaling-stroke" d="
  M 334.22 213.52
  Q 334.10 212.19 334.56 211.54
  Q 341.62 201.54 340.43 189.32"
/>
<path stroke="#69832c" vector-effect="non-scaling-stroke" d="
  M 340.43 189.32
  L 340.49 183.42"
/>
<path stroke="#d9cb47" vector-effect="non-scaling-stroke" d="
  M 340.49 183.42
  L 340.49 179.10"
/>
<path stroke="#69832c" vector-effect="non-scaling-stroke" d="
  M 340.49 179.10
  L 340.50 173.10"
/>
<path stroke="#d9cb47" vector-effect="non-scaling-stroke" d="
  M 340.50 173.10
  L 340.47 168.54"
/>
<path stroke="#69832c" vector-effect="non-scaling-stroke" d="
  M 340.47 168.54
  L 339.50 162.51"
/>
<path stroke="#d9cb47" vector-effect="non-scaling-stroke" d="
  M 339.50 162.51
  Q 335.02 148.66 322.27 142.60
  C 320.44 141.73 318.07 141.15 316.03 140.48"
/>
<path stroke="#69832c" vector-effect="non-scaling-stroke" d="
  M 316.03 140.48
  Q 314.30 131.27 308.91 123.53"
/>
<path stroke="#d9cb47" vector-effect="non-scaling-stroke" d="
  M 308.91 123.53
  Q 306.05 117.34 299.37 112.88
  Q 299.14 112.72 298.95 112.00"
/>
<path stroke="#daaba4" vector-effect="non-scaling-stroke" d="
  M 298.95 112.00
  Q 303.22 101.88 308.71 92.32
  C 314.00 83.13 317.32 72.26 308.72 63.76
  Q 303.32 58.43 294.82 55.24"
/>
<path stroke="#69832c" vector-effect="non-scaling-stroke" d="
  M 294.82 55.24
  Q 292.50 53.80 290.00 53.02
  C 278.65 49.46 268.82 48.44 254.89 47.08
  C 229.82 44.62 204.39 43.51 179.25 45.49
  Q 175.79 45.76 172.46 46.55"
/>
<path stroke="#d9cb47" vector-effect="non-scaling-stroke" d="
  M 172.46 46.55
  Q 170.78 46.22 168.80 46.64"
/>
<path stroke="#daaba4" vector-effect="non-scaling-stroke" d="
  M 168.80 46.64
  Q 156.23 48.06 144.28 51.88
  C 130.83 56.17 123.50 66.82 116.98 78.22
  Q 107.90 94.13 99.11 110.78"
/>
<path stroke="#d9cb47" vector-effect="non-scaling-stroke" d="
  M 99.11 110.78
  C 86.55 113.61 80.30 127.78 77.28 139.24
  A 2.02 2.01 88.7 0 1 75.92 140.67
  Q 52.59 147.88 52.14 172.76
  C 51.92 184.89 50.92 196.06 54.29 204.47"
/>
<path stroke="#69832c" vector-effect="non-scaling-stroke" d="
  M 54.29 204.47
  Q 59.59 217.51 72.72 222.48"
/>
<path stroke="#daaba4" vector-effect="non-scaling-stroke" d="
  M 72.72 222.48
  L 72.73 234.82
  A 0.42 0.42 0.0 0 1 72.12 235.20
  Q 65.44 231.91 62.21 238.49
  C 56.53 250.07 56.94 262.15 66.07 271.83"
/>
<path stroke="#69832c" vector-effect="non-scaling-stroke" d="
  M 66.07 271.83
  Q 55.90 282.82 47.45 296.53"
/>
<path stroke="#949289" vector-effect="non-scaling-stroke" d="
  M 47.45 296.53
  L 45.64 299.51"
/>
<path stroke="#ea789b" vector-effect="non-scaling-stroke" d="
  M 171.07 47.17
  Q 170.00 46.56 168.80 46.64"
/>
<path stroke="#331865" vector-effect="non-scaling-stroke" d="
  M 107.32 333.14
  C 102.95 330.93 99.06 319.37 97.32 314.80
  C 95.24 309.32 92.34 304.13 87.64 301.58
  Q 69.43 291.69 47.45 296.53"
/>
<path stroke="#7a3080" vector-effect="non-scaling-stroke" d="
  M 159.28 260.86
  C 164.69 275.85 163.74 290.72 163.37 306.29"
/>
<path stroke="#a540dd" vector-effect="non-scaling-stroke" d="
  M 163.37 306.29
  Q 165.24 321.43 164.25 331.50
  C 163.13 342.93 152.43 344.86 143.22 344.86"
/>
<path stroke="#f5acfb" vector-effect="non-scaling-stroke" d="
  M 143.22 344.86
  Q 142.69 337.97 142.24 331.25
  Q 141.90 326.22 140.54 323.01
  Q 138.42 318.04 132.45 319.82"
/>
<path stroke="#7a3080" vector-effect="non-scaling-stroke" d="
  M 132.45 319.82
  Q 122.31 322.99 115.14 331.42
  Q 113.03 333.91 110.93 336.52"
/>
<path stroke="#a540dd" vector-effect="non-scaling-stroke" d="
  M 110.93 336.52
  C 109.41 336.50 108.19 334.14 107.32 333.14"
/>
<path stroke="#7a3080" vector-effect="non-scaling-stroke" d="
  M 107.32 333.14
  Q 104.03 326.49 102.24 316.75
  C 100.64 308.01 97.24 300.07 91.35 295.15
  Q 77.97 283.98 66.07 271.83"
/>
<path stroke="#331865" vector-effect="non-scaling-stroke" d="
  M 110.93 336.52
  Q 111.04 337.32 111.53 337.72
  Q 118.37 343.30 127.57 344.91"
/>
<path stroke="#af93e1" vector-effect="non-scaling-stroke" d="
  M 127.57 344.91
  L 126.36 363.32"
/>
<path stroke="#7a3080" vector-effect="non-scaling-stroke" d="
  M 343.64 225.15
  Q 327.40 238.37 305.39 240.07
  Q 290.17 241.26 275.74 237.49"
/>
<path stroke="#7a3080" vector-effect="non-scaling-stroke" d="
  M 294.82 55.24
  Q 297.60 59.62 296.97 63.00
  Q 295.78 69.34 291.96 76.49
  Q 291.89 76.61 291.52 76.84"
/>
<path stroke="#69832c" vector-effect="non-scaling-stroke" d="
  M 291.52 76.84
  Q 289.38 75.58 288.42 75.35
  C 267.32 70.24 248.04 69.21 225.32 67.96
  C 198.94 66.51 175.01 67.09 151.74 71.76
  Q 147.04 72.71 142.97 76.74"
/>
<path stroke="#7a3080" vector-effect="non-scaling-stroke" d="
  M 142.97 76.74
  C 148.22 62.93 158.16 53.88 171.07 47.17"
/>
<path stroke="#795023" vector-effect="non-scaling-stroke" d="
  M 171.07 47.17
  Q 171.73 47.04 172.46 46.55"
/>
<path stroke="#daaba4" vector-effect="non-scaling-stroke" d="
  M 142.97 76.74
  Q 130.44 93.34 119.04 110.95"
/>
<path stroke="#f5acfb" vector-effect="non-scaling-stroke" d="
  M 119.04 110.95
  Q 113.71 111.23 109.43 114.51"
/>
<path stroke="#ea789b" vector-effect="non-scaling-stroke" d="
  M 109.43 114.51
  Q 105.00 111.34 99.11 110.78"
/>
<path stroke="#f4cc9f" vector-effect="non-scaling-stroke" d="
  M 109.43 114.51
  C 97.45 126.29 92.98 146.16 91.87 162.26"
/>
<path stroke="#795023" vector-effect="non-scaling-stroke" d="
  M 91.87 162.26
  C 89.98 183.31 92.51 218.15 109.25 233.46"
/>
<path stroke="#ea789b" vector-effect="non-scaling-stroke" d="
  M 109.25 233.46
  C 98.47 243.27 88.79 233.08 83.30 224.26"
/>
<path stroke="#795023" vector-effect="non-scaling-stroke" d="
  M 83.30 224.26
  C 71.31 200.96 70.36 170.79 75.70 145.31
  Q 75.76 145.03 75.48 145.11
  Q 75.36 145.14 75.24 145.21
  Q 75.04 145.32 74.92 145.58
  C 67.15 162.06 67.42 182.05 65.06 195.53
  Q 63.64 203.64 54.29 204.47"
/>
<path stroke="#7a3080" vector-effect="non-scaling-stroke" d="
  M 83.30 224.26
  Q 77.90 224.18 72.72 222.48"
/>
<path stroke="#795023" vector-effect="non-scaling-stroke" d="
  M 308.91 123.53
  Q 307.08 132.05 307.20 139.73
  A 0.46 0.45 90.0 0 0 307.64 140.18
  L 316.03 140.48"
/>
<path stroke="#795023" vector-effect="non-scaling-stroke" d="
  M 339.50 162.51
  L 324.71 162.57
  A 2.50 2.50 0.0 0 0 322.22 164.99
  L 322.20 165.67
  Q 322.11 168.71 325.15 168.68
  L 340.47 168.54"
/>
<path stroke="#795023" vector-effect="non-scaling-stroke" d="
  M 340.50 173.10
  L 325.10 172.98
  Q 321.88 172.95 322.24 176.15
  L 322.31 176.79
  A 2.57 2.57 0.0 0 0 324.85 179.07
  L 340.49 179.10"
/>
<path stroke="#795023" vector-effect="non-scaling-stroke" d="
  M 340.49 183.42
  L 324.61 183.39
  A 2.32 2.32 0.0 0 0 322.29 185.71
  L 322.30 186.48
  Q 322.30 189.40 325.22 189.39
  L 340.43 189.32"
/>
<path stroke="#795023" vector-effect="non-scaling-stroke" d="
  M 334.22 213.52
  Q 333.58 212.89 333.02 213.52
  Q 327.40 219.79 320.33 222.39
  C 316.24 223.90 309.52 225.26 305.44 223.32
  Q 303.77 222.53 302.31 221.86"
/>
<path stroke="#f4cc9f" vector-effect="non-scaling-stroke" d="
  M 302.31 221.86
  Q 298.99 217.69 298.99 215.25
  Q 298.92 183.19 298.99 151.13
  C 298.99 147.88 299.78 145.60 301.84 143.34
  Q 302.66 142.45 301.64 141.80
  C 296.47 138.48 288.04 140.78 288.06 147.75
  Q 288.11 172.47 288.10 197.36"
/>
<path stroke="#795023" vector-effect="non-scaling-stroke" d="
  M 288.10 197.36
  Q 276.50 196.88 266.32 190.35"
/>
<path stroke="#ea789b" vector-effect="non-scaling-stroke" d="
  M 298.95 112.00
  C 298.53 112.15 298.14 112.25 297.69 112.08
  Q 290.05 109.20 283.18 114.75"
/>
<path stroke="#f5acfb" vector-effect="non-scaling-stroke" d="
  M 283.18 114.75
  Q 279.43 111.33 273.89 110.99"
/>
<path stroke="#daaba4" vector-effect="non-scaling-stroke" d="
  M 273.89 110.99
  Q 282.42 92.50 291.34 77.81
  Q 291.73 77.16 291.52 76.84"
/>
<path stroke="#a540dd" vector-effect="non-scaling-stroke" d="
  M 258.92 333.82
  Q 256.09 342.28 247.54 346.07
  Q 246.77 346.41 246.09 346.19
  Q 245.48 345.98 244.67 345.56"
/>
<path stroke="#7a3080" vector-effect="non-scaling-stroke" d="
  M 244.67 345.56
  Q 238.13 331.90 226.89 321.88"
/>
<path stroke="#f5acfb" vector-effect="non-scaling-stroke" d="
  M 226.89 321.88
  C 224.14 318.14 218.85 318.60 217.09 323.04
  Q 215.78 326.32 215.71 327.25
  Q 214.86 338.25 213.92 349.25
  Q 213.88 349.67 213.69 350.04"
/>
<path stroke="#a540dd" vector-effect="non-scaling-stroke" d="
  M 213.69 350.04
  Q 212.96 350.24 212.26 350.15
  C 200.63 348.67 193.31 340.86 192.27 328.99
  C 191.64 321.78 192.84 315.79 193.35 308.89"
/>
<path stroke="#7a3080" vector-effect="non-scaling-stroke" d="
  M 193.35 308.89
  Q 194.00 306.69 195.54 299.99
  Q 200.03 280.47 215.09 264.80
  Q 215.53 264.34 215.70 263.21"
/>
<path stroke="#af93e1" vector-effect="non-scaling-stroke" d="
  M 213.69 350.04
  Q 214.00 350.44 213.97 350.75
  C 213.50 356.11 211.74 363.73 215.47 368.02
  C 221.67 375.15 231.78 369.44 231.05 361.00
  Q 230.58 355.66 230.33 349.87"
/>
<path stroke="#331865" vector-effect="non-scaling-stroke" d="
  M 230.33 349.87
  Q 238.97 349.17 244.50 347.28
  Q 245.97 346.78 244.67 345.56"
/>
<path stroke="#af93e1" vector-effect="non-scaling-stroke" d="
  M 183.68 347.42
  C 192.45 345.19 190.87 335.59 189.99 328.86
  C 189.42 324.54 189.17 321.27 184.76 320.28
  C 180.57 319.33 169.38 317.45 167.34 323.32
  C 165.72 328.00 166.26 333.48 166.40 338.37
  C 166.53 342.88 168.07 345.39 172.40 346.45"
/>
<path stroke="#af93e1" vector-effect="non-scaling-stroke" d="
  M 141.57 368.73
  Q 144.84 364.68 144.44 360.75
  Q 143.64 352.74 143.22 344.86"
/>
<path stroke="#f5acfb" vector-effect="non-scaling-stroke" d="
  M 246.25 237.56
  Q 246.53 238.14 245.81 238.60
  Q 229.41 248.98 216.94 262.21
  Q 216.39 262.79 215.70 263.21"
/>
<path stroke="#848484" vector-effect="non-scaling-stroke" d="
  M 215.70 263.21
  C 196.68 268.42 177.89 267.28 159.28 260.86"
/>
<path stroke="#f5acfb" vector-effect="non-scaling-stroke" d="
  M 159.28 260.86
  Q 138.32 252.69 123.25 236.55"
/>
<path stroke="#848484" vector-effect="non-scaling-stroke" d="
  M 127.57 344.91
  Q 128.08 338.10 128.64 330.67
  C 128.81 328.49 129.27 325.81 129.85 324.09
  Q 130.38 322.51 132.45 319.82"
/>
<path stroke="#331865" vector-effect="non-scaling-stroke" d="
  M 193.35 308.89
  Q 177.61 312.83 163.37 306.29"
/>
<path stroke="#7a3080" vector-effect="non-scaling-stroke" d="
  M 261.10 229.79
  Q 253.91 233.39 247.20 237.67
  Q 246.80 237.92 246.25 237.56"
/>
<path stroke="#848484" vector-effect="non-scaling-stroke" d="
  M 246.25 237.56
  L 240.04 227.04
  Q 239.78 226.60 239.29 226.75
  C 202.23 238.24 156.19 241.90 120.34 223.92
  Q 117.89 222.69 110.56 218.29
  Q 109.96 217.93 110.30 218.54
  Q 115.66 228.16 123.25 236.55"
/>
<path stroke="#7a3080" vector-effect="non-scaling-stroke" d="
  M 123.25 236.55
  Q 115.41 238.86 109.25 233.46"
/>
<path stroke="#4d2b7f" vector-effect="non-scaling-stroke" d="
  M 99.13 168.91
  Q 98.73 178.16 99.76 187.26
  Q 99.90 188.48 101.70 189.03
  Q 108.29 191.06 115.36 192.33"
/>
<path stroke="#3f8283" vector-effect="non-scaling-stroke" d="
  M 115.36 192.33
  L 139.59 196.44"
/>
<path stroke="#4d2b7f" vector-effect="non-scaling-stroke" d="
  M 165.77 198.23
  L 188.34 197.91"
/>
<path stroke="#7a3080" vector-effect="non-scaling-stroke" d="
  M 188.34 197.91
  Q 203.19 197.33 217.11 195.28"
/>
<path stroke="#4d2b7f" vector-effect="non-scaling-stroke" d="
  M 217.11 195.28
  L 231.76 193.21
  A 0.78 0.77 -5.3 0 0 232.43 192.41
  C 232.06 182.66 233.09 174.05 235.14 163.75"
/>
<path stroke="#848484" vector-effect="non-scaling-stroke" d="
  M 235.14 163.75
  C 238.64 150.97 243.57 140.09 252.28 129.51"
/>
<path stroke="#f4cc9f" vector-effect="non-scaling-stroke" d="
  M 283.18 114.75
  Q 276.21 121.79 272.62 131.34
  Q 266.36 147.97 265.69 165.75
  Q 265.15 180.24 266.32 190.35"
/>
<path stroke="#848484" vector-effect="non-scaling-stroke" d="
  M 266.32 190.35
  C 267.85 204.91 272.28 222.78 282.99 233.19
  A 0.48 0.48 0.0 0 1 282.86 233.97
  L 275.74 237.49"
/>
<path stroke="#f5acfb" vector-effect="non-scaling-stroke" d="
  M 275.74 237.49
  Q 271.54 237.40 268.54 235.93
  Q 264.58 233.98 261.10 229.79"
/>
<path stroke="#848484" vector-effect="non-scaling-stroke" d="
  M 261.10 229.79
  C 247.77 211.11 245.88 184.78 247.28 162.76
  Q 248.52 143.24 256.68 125.25"
/>
<path stroke="#848484" vector-effect="non-scaling-stroke" d="
  M 302.31 221.86
  C 295.49 227.35 288.01 222.88 287.94 214.73
  Q 287.87 205.97 288.10 197.36"
/>
<path stroke="#e4fea8" vector-effect="non-scaling-stroke" d="
  M 273.89 110.99
  Q 267.90 111.61 263.31 116.28"
/>
<path stroke="#daaba4" vector-effect="non-scaling-stroke" d="
  M 263.31 116.28
  Q 257.13 108.79 249.77 102.73
  Q 249.55 102.54 249.27 102.45
  Q 249.13 102.40 248.93 102.31"
/>
<path stroke="#949289" vector-effect="non-scaling-stroke" d="
  M 248.93 102.31
  Q 249.24 102.56 248.71 102.21"
/>
<path stroke="#9ffca7" vector-effect="non-scaling-stroke" d="
  M 248.71 102.21
  Q 248.48 102.03 248.38 101.75
  A 0.86 0.82 -81.7 0 0 248.13 101.40
  Q 234.53 90.90 218.82 86.12"
/>
<path stroke="#e4fea8" vector-effect="non-scaling-stroke" d="
  M 218.82 86.12
  Q 205.90 81.95 192.54 82.01"
/>
<path stroke="#daaba4" vector-effect="non-scaling-stroke" d="
  M 192.54 82.01
  Q 192.26 81.83 191.75 81.83
  Q 171.83 81.66 154.07 89.63"
/>
<path stroke="#ada6a3" vector-effect="non-scaling-stroke" d="
  M 154.07 89.63
  Q 137.90 96.66 127.09 108.22"
/>
<path stroke="#9ffca7" vector-effect="non-scaling-stroke" d="
  M 127.09 108.22
  L 123.03 111.89"
/>
<path stroke="#e4fea8" vector-effect="non-scaling-stroke" d="
  M 123.03 111.89
  L 119.04 110.95"
/>
<path stroke="#af93e1" vector-effect="non-scaling-stroke" d="
  M 110.72 129.00
  Q 102.95 142.96 100.31 158.69"
/>
<path stroke="#c8a7fb" vector-effect="non-scaling-stroke" d="
  M 100.31 158.69
  L 99.13 168.91"
/>
<path stroke="#848484" vector-effect="non-scaling-stroke" d="
  M 99.13 168.91
  L 91.87 162.26"
/>
<path stroke="#848484" vector-effect="non-scaling-stroke" d="
  M 226.89 321.88
  Q 228.76 327.04 229.07 332.25
  Q 229.61 341.28 230.33 349.87"
/>
<path stroke="#be53f7" vector-effect="non-scaling-stroke" d="
  M 217.11 195.28
  L 220.19 166.98
  A 1.04 1.03 1.9 0 0 219.10 165.83
  L 190.90 167.33
  A 0.87 0.87 0.0 0 0 190.08 168.14
  L 188.34 197.91"
/>
<path stroke="#f5acfb" vector-effect="non-scaling-stroke" d="
  M 263.31 116.28
  L 256.68 125.25"
/>
<path stroke="#7a3080" vector-effect="non-scaling-stroke" d="
  M 256.68 125.25
  L 252.28 129.51"
/>
<path stroke="#f5acfb" vector-effect="non-scaling-stroke" d="
  M 252.28 129.51
  L 229.81 130.20"
/>
<path stroke="#be53f7" vector-effect="non-scaling-stroke" d="
  M 229.81 130.20
  Q 229.66 130.20 230.01 129.55"
/>
<path stroke="#c8a7fb" vector-effect="non-scaling-stroke" d="
  M 235.14 163.75
  L 221.05 165.48
  A 0.53 0.53 0.0 0 1 220.47 164.84
  C 223.05 152.94 225.24 141.84 229.81 130.20"
/>
<path stroke="#83a5fa" vector-effect="non-scaling-stroke" d="
  M 117.91 161.30
  Q 117.14 161.36 117.03 163.00
  Q 116.07 177.47 115.36 192.33"
/>
<path stroke="#783bdc" vector-effect="non-scaling-stroke" d="
  M 179.14 102.35
  Q 172.75 115.97 169.89 130.31
  A 1.21 1.21 0.0 0 0 171.11 131.76
  L 194.70 131.20
  A 0.96 0.96 0.0 0 0 195.60 130.48
  Q 199.10 116.26 205.65 103.90
  Q 205.87 103.48 206.98 103.26"
/>
<path stroke="#a540dd" vector-effect="non-scaling-stroke" d="
  M 248.93 102.31
  Q 238.69 111.99 232.48 124.72
  Q 231.28 127.18 230.01 129.55"
/>
<path stroke="#783bdc" vector-effect="non-scaling-stroke" d="
  M 230.01 129.55
  L 229.54 129.91
  Q 229.35 130.05 229.10 130.06
  L 195.73 131.35
  A 0.38 0.37 -83.8 0 0 195.38 131.64
  Q 191.55 148.65 190.40 166.06
  A 1.19 1.19 0.0 0 1 189.18 167.18
  L 166.42 166.65
  A 0.92 0.91 -89.4 0 0 165.48 167.58
  L 165.77 198.23"
/>
<path stroke="#331865" vector-effect="non-scaling-stroke" d="
  M 165.77 198.23
  Q 152.42 198.13 139.59 196.44"
/>
<path stroke="#6a91e0" vector-effect="non-scaling-stroke" d="
  M 139.59 196.44
  L 139.39 164.10"
/>
<path stroke="#6a91e0" vector-effect="non-scaling-stroke" d="
  M 139.39 164.10
  L 165.01 166.35
  Q 165.46 166.39 165.48 165.93
  Q 166.08 148.96 169.25 132.27
  Q 169.35 131.75 168.82 131.75
  L 142.03 131.42"
/>
<path stroke="#6a91e0" vector-effect="non-scaling-stroke" d="
  M 248.71 102.21
  Q 248.27 102.54 247.75 102.57
  Q 227.35 103.70 206.98 103.26"
/>
<path stroke="#83a5fa" vector-effect="non-scaling-stroke" d="
  M 206.98 103.26
  Q 206.72 103.40 205.98 103.27"
/>
<path stroke="#f5acfb" vector-effect="non-scaling-stroke" d="
  M 192.54 82.01
  Q 184.52 91.25 179.14 102.35"
/>
<path stroke="#a540dd" vector-effect="non-scaling-stroke" d="
  M 179.14 102.35
  L 149.52 100.94"
/>
<path stroke="#be53f7" vector-effect="non-scaling-stroke" d="
  M 149.52 100.94
  L 154.07 89.63"
/>
<path stroke="#783bdc" vector-effect="non-scaling-stroke" d="
  M 149.52 100.94
  Q 144.30 115.79 142.03 131.42"
/>
<path stroke="#83a5fa" vector-effect="non-scaling-stroke" d="
  M 142.03 131.42
  Q 142.11 131.79 141.94 132.48"
/>
<path stroke="#be53f7" vector-effect="non-scaling-stroke" d="
  M 141.94 132.48
  L 141.50 131.75
  Q 141.29 131.39 140.87 131.37
  L 121.76 130.20"
/>
<path stroke="#783bdc" vector-effect="non-scaling-stroke" d="
  M 121.76 130.20
  Q 121.65 129.92 121.48 129.74"
/>
<path stroke="#83a5fa" vector-effect="non-scaling-stroke" d="
  M 121.48 129.74
  L 127.09 108.22"
/>
<path stroke="#6a91e0" vector-effect="non-scaling-stroke" d="
  M 121.48 129.74
  Q 121.38 129.82 121.30 129.92
  Q 121.24 130.01 121.13 130.00
  L 110.72 129.00"
/>
<path stroke="#bafdfe" vector-effect="non-scaling-stroke" d="
  M 110.72 129.00
  Q 115.56 119.81 123.03 111.89"
/>
<path stroke="#bafdfe" vector-effect="non-scaling-stroke" d="
  M 218.82 86.12
  Q 211.15 94.04 205.98 103.27"
/>
<path stroke="#c8a7fb" vector-effect="non-scaling-stroke" d="
  M 205.98 103.27
  L 179.14 102.35"
/>
<path stroke="#a540dd" vector-effect="non-scaling-stroke" d="
  M 121.76 130.20
  Q 121.20 130.73 121.01 131.75
  Q 118.30 146.04 117.31 160.53"
/>
<path stroke="#783bdc" vector-effect="non-scaling-stroke" d="
  M 117.31 160.53
  Q 116.44 161.15 116.00 161.07
  Q 108.33 159.67 100.31 158.69"
/>
<path stroke="#b0aafa" vector-effect="non-scaling-stroke" d="
  M 141.94 132.48
  C 140.59 143.70 139.92 152.50 139.39 164.10"
/>
<path stroke="#b0aafa" vector-effect="non-scaling-stroke" d="
  M 139.39 164.10
  L 117.91 161.30"
/>
<path stroke="#be53f7" vector-effect="non-scaling-stroke" d="
  M 117.91 161.30
  L 117.31 160.53"
/>
<path stroke="#69832c" vector-effect="non-scaling-stroke" d="
  M 149.3630 215.9129
  A 7.30 7.30 0.0 0 0 144.4845 206.8145
  L 135.7155 204.1670
  A 7.30 7.30 0.0 0 0 126.6171 209.0455
  L 126.3570 209.9071
  A 7.30 7.30 0.0 0 0 131.2355 219.0055
  L 140.0045 221.6530
  A 7.30 7.30 0.0 0 0 149.1029 216.7745
  L 149.3630 215.9129"
/>
<path stroke="#69832c" vector-effect="non-scaling-stroke" d="
  M 214.5009 209.0738
  A 7.31 7.31 0.0 0 0 205.3986 204.1727
  L 196.7016 206.7819
  A 7.31 7.31 0.0 0 0 191.8005 215.8842
  L 192.0591 216.7462
  A 7.31 7.31 0.0 0 0 201.1614 221.6473
  L 209.8584 219.0381
  A 7.31 7.31 0.0 0 0 214.7595 209.9358
  L 214.5009 209.0738"
/>
<path stroke="#7a3080" vector-effect="non-scaling-stroke" d="
  M 139.41 290.60
  C 136.47 284.66 129.97 266.71 121.25 268.48
  C 117.69 269.20 117.88 273.75 120.02 275.99
  Q 123.47 279.61 126.22 283.76
  Q 136.71 299.58 144.21 316.80
  A 1.81 1.81 0.0 0 0 145.98 317.88
  C 147.05 317.81 147.74 317.17 147.83 316.05
  C 148.52 307.31 143.14 298.15 139.41 290.60"
/>
<path stroke="#7a3080" vector-effect="non-scaling-stroke" d="
  M 115.53 302.95
  C 119.71 306.61 124.53 308.22 128.76 311.58
  C 129.82 312.42 130.99 312.61 132.03 311.78
  A 1.63 1.62 -38.4 0 0 132.30 309.51
  C 128.75 304.97 123.83 301.49 119.18 297.83
  A 2.54 2.54 0.0 0 0 115.82 298.03
  L 115.38 298.48
  Q 113.07 300.79 115.53 302.95"
/>
<path stroke="#7a3080" vector-effect="non-scaling-stroke" d="
  M 210.98 326.63
  C 212.93 308.24 225.45 295.63 238.14 281.39
  Q 243.85 274.97 250.66 271.64
  C 254.52 269.75 257.51 267.57 255.13 263.10
  C 249.61 252.75 233.25 272.36 230.07 276.57
  C 218.99 291.25 206.49 306.30 207.70 326.02
  Q 207.84 328.26 209.86 327.85
  A 1.40 1.40 0.0 0 0 210.98 326.63"
/>
<path stroke="#7a3080" vector-effect="non-scaling-stroke" d="
  M 243.43 302.17
  C 237.48 304.48 230.17 307.13 225.42 311.44
  A 1.55 1.55 0.0 0 0 225.64 313.90
  Q 227.01 314.77 228.47 314.34
  Q 236.79 311.87 245.13 309.45
  C 247.91 308.64 252.34 305.89 250.01 302.51
  C 248.24 299.93 245.74 301.26 243.43 302.17"
/>
<path stroke="#af93e1" vector-effect="non-scaling-stroke" d="
  M 182.4211 326.6792
  A 2.31 2.31 0.0 0 0 180.0672 324.4139
  L 176.1679 324.4888
  A 2.31 2.31 0.0 0 0 173.9027 326.8427
  L 174.0989 337.0608
  A 2.31 2.31 0.0 0 0 176.4528 339.3261
  L 180.3521 339.2512
  A 2.31 2.31 0.0 0 0 182.6173 336.8973
  L 182.4211 326.6792"
/>
</g>
<path fill="#080808" d="
  M 0.00 0.00
  L 390.00 0.00
  L 390.00 384.00
  L 0.00 384.00
  L 0.00 0.00
  Z
  M 45.64 299.51
  Q 45.74 300.05 46.35 300.87
  Q 77.83 343.14 126.36 363.32
  L 141.57 368.73
  Q 155.53 372.89 169.82 375.10
  Q 170.42 375.19 170.42 374.58
  Q 170.48 360.75 172.40 346.45
  Q 178.19 347.81 183.68 347.42
  Q 184.90 361.12 184.20 375.37
  A 1.29 1.29 0.0 0 0 185.44 376.73
  C 241.61 379.22 292.39 358.85 331.28 318.39
  A 0.51 0.51 0.0 0 0 331.18 317.61
  C 314.64 307.20 290.23 304.15 275.35 318.86
  Q 266.58 327.54 258.92 333.82
  C 260.39 326.82 260.99 319.94 262.93 313.22
  C 267.11 298.72 285.98 292.10 300.01 290.46
  C 314.59 288.76 329.55 288.11 342.99 282.18
  Q 347.23 288.24 349.48 294.78
  A 0.33 0.32 52.3 0 0 350.06 294.86
  Q 368.39 267.25 376.07 235.21
  C 405.59 112.10 306.13 -4.27 180.01 6.93
  C 81.14 15.72 7.44 100.12 11.02 199.25
  Q 12.86 250.50 42.18 294.77
  Q 43.64 296.97 45.64 299.51
  Z"
/>
<path fill="#c9fd50" d="
  M 342.99 282.18
  Q 347.97 279.28 348.85 273.90
  C 349.64 268.99 349.64 262.65 347.14 258.05
  C 345.39 254.83 340.80 254.84 339.20 251.86
  C 337.20 248.16 344.91 236.81 345.18 231.70
  Q 345.37 227.92 343.64 225.15
  Q 339.93 217.58 334.22 213.52
  Q 334.10 212.19 334.56 211.54
  Q 341.62 201.54 340.43 189.32
  L 340.49 183.42
  L 340.49 179.10
  L 340.50 173.10
  L 340.47 168.54
  L 339.50 162.51
  Q 335.02 148.66 322.27 142.60
  C 320.44 141.73 318.07 141.15 316.03 140.48
  Q 314.30 131.27 308.91 123.53
  Q 306.05 117.34 299.37 112.88
  Q 299.14 112.72 298.95 112.00
  Q 303.22 101.88 308.71 92.32
  C 314.00 83.13 317.32 72.26 308.72 63.76
  Q 303.32 58.43 294.82 55.24
  Q 292.50 53.80 290.00 53.02
  C 278.65 49.46 268.82 48.44 254.89 47.08
  C 229.82 44.62 204.39 43.51 179.25 45.49
  Q 175.79 45.76 172.46 46.55
  Q 170.78 46.22 168.80 46.64
  Q 156.23 48.06 144.28 51.88
  C 130.83 56.17 123.50 66.82 116.98 78.22
  Q 107.90 94.13 99.11 110.78
  C 86.55 113.61 80.30 127.78 77.28 139.24
  A 2.02 2.01 88.7 0 1 75.92 140.67
  Q 52.59 147.88 52.14 172.76
  C 51.92 184.89 50.92 196.06 54.29 204.47
  Q 59.59 217.51 72.72 222.48
  L 72.73 234.82
  A 0.42 0.42 0.0 0 1 72.12 235.20
  Q 65.44 231.91 62.21 238.49
  C 56.53 250.07 56.94 262.15 66.07 271.83
  Q 55.90 282.82 47.45 296.53
  L 45.64 299.51
  Q 43.64 296.97 42.18 294.77
  Q 12.86 250.50 11.02 199.25
  C 7.44 100.12 81.14 15.72 180.01 6.93
  C 306.13 -4.27 405.59 112.10 376.07 235.21
  Q 368.39 267.25 350.06 294.86
  A 0.33 0.32 52.3 0 1 349.48 294.78
  Q 347.23 288.24 342.99 282.18
  Z"
/>
<path fill="#080808" d="
  M 294.82 55.24
  Q 297.60 59.62 296.97 63.00
  Q 295.78 69.34 291.96 76.49
  Q 291.89 76.61 291.52 76.84
  Q 289.38 75.58 288.42 75.35
  C 267.32 70.24 248.04 69.21 225.32 67.96
  C 198.94 66.51 175.01 67.09 151.74 71.76
  Q 147.04 72.71 142.97 76.74
  C 148.22 62.93 158.16 53.88 171.07 47.17
  Q 171.73 47.04 172.46 46.55
  Q 175.79 45.76 179.25 45.49
  C 204.39 43.51 229.82 44.62 254.89 47.08
  C 268.82 48.44 278.65 49.46 290.00 53.02
  Q 292.50 53.80 294.82 55.24
  Z"
/>
<path fill="#e9983e" d="
  M 172.46 46.55
  Q 171.73 47.04 171.07 47.17
  Q 170.00 46.56 168.80 46.64
  Q 170.78 46.22 172.46 46.55
  Z"
/>
<path fill="#eb58f7" d="
  M 168.80 46.64
  Q 170.00 46.56 171.07 47.17
  C 158.16 53.88 148.22 62.93 142.97 76.74
  Q 130.44 93.34 119.04 110.95
  Q 113.71 111.23 109.43 114.51
  Q 105.00 111.34 99.11 110.78
  Q 107.90 94.13 116.98 78.22
  C 123.50 66.82 130.83 56.17 144.28 51.88
  Q 156.23 48.06 168.80 46.64
  Z"
/>
<path fill="#eb58f7" d="
  M 294.82 55.24
  Q 303.32 58.43 308.72 63.76
  C 317.32 72.26 314.00 83.13 308.71 92.32
  Q 303.22 101.88 298.95 112.00
  C 298.53 112.15 298.14 112.25 297.69 112.08
  Q 290.05 109.20 283.18 114.75
  Q 279.43 111.33 273.89 110.99
  Q 282.42 92.50 291.34 77.81
  Q 291.73 77.16 291.52 76.84
  Q 291.89 76.61 291.96 76.49
  Q 295.78 69.34 296.97 63.00
  Q 297.60 59.62 294.82 55.24
  Z"
/>
<path fill="#c9fd50" d="
  M 291.52 76.84
  Q 291.73 77.16 291.34 77.81
  Q 282.42 92.50 273.89 110.99
  Q 267.90 111.61 263.31 116.28
  Q 257.13 108.79 249.77 102.73
  Q 249.55 102.54 249.27 102.45
  Q 249.13 102.40 248.93 102.31
  Q 249.24 102.56 248.71 102.21
  Q 248.48 102.03 248.38 101.75
  A 0.86 0.82 -81.7 0 0 248.13 101.40
  Q 234.53 90.90 218.82 86.12
  Q 205.90 81.95 192.54 82.01
  Q 192.26 81.83 191.75 81.83
  Q 171.83 81.66 154.07 89.63
  Q 137.90 96.66 127.09 108.22
  L 123.03 111.89
  L 119.04 110.95
  Q 130.44 93.34 142.97 76.74
  Q 147.04 72.71 151.74 71.76
  C 175.01 67.09 198.94 66.51 225.32 67.96
  C 248.04 69.21 267.32 70.24 288.42 75.35
  Q 289.38 75.58 291.52 76.84
  Z"
/>
<path fill="#eb58f7" d="
  M 192.54 82.01
  Q 184.52 91.25 179.14 102.35
  L 149.52 100.94
  L 154.07 89.63
  Q 171.83 81.66 191.75 81.83
  Q 192.26 81.83 192.54 82.01
  Z"
/>
<path fill="#ffffff" d="
  M 218.82 86.12
  Q 211.15 94.04 205.98 103.27
  L 179.14 102.35
  Q 184.52 91.25 192.54 82.01
  Q 205.90 81.95 218.82 86.12
  Z"
/>
<path fill="#75fbfd" d="
  M 218.82 86.12
  Q 234.53 90.90 248.13 101.40
  A 0.86 0.82 -81.7 0 1 248.38 101.75
  Q 248.48 102.03 248.71 102.21
  Q 248.27 102.54 247.75 102.57
  Q 227.35 103.70 206.98 103.26
  Q 206.72 103.40 205.98 103.27
  Q 211.15 94.04 218.82 86.12
  Z"
/>
<path fill="#914ef6" d="
  M 154.07 89.63
  L 149.52 100.94
  Q 144.30 115.79 142.03 131.42
  Q 142.11 131.79 141.94 132.48
  L 141.50 131.75
  Q 141.29 131.39 140.87 131.37
  L 121.76 130.20
  Q 121.65 129.92 121.48 129.74
  L 127.09 108.22
  Q 137.90 96.66 154.07 89.63
  Z"
/>
<path fill="#5e27c2" d="
  M 149.52 100.94
  L 179.14 102.35
  Q 172.75 115.97 169.89 130.31
  A 1.21 1.21 0.0 0 0 171.11 131.76
  L 194.70 131.20
  A 0.96 0.96 0.0 0 0 195.60 130.48
  Q 199.10 116.26 205.65 103.90
  Q 205.87 103.48 206.98 103.26
  Q 227.35 103.70 247.75 102.57
  Q 248.27 102.54 248.71 102.21
  Q 249.24 102.56 248.93 102.31
  Q 238.69 111.99 232.48 124.72
  Q 231.28 127.18 230.01 129.55
  L 229.54 129.91
  Q 229.35 130.05 229.10 130.06
  L 195.73 131.35
  A 0.38 0.37 -83.8 0 0 195.38 131.64
  Q 191.55 148.65 190.40 166.06
  A 1.19 1.19 0.0 0 1 189.18 167.18
  L 166.42 166.65
  A 0.92 0.91 -89.4 0 0 165.48 167.58
  L 165.77 198.23
  Q 152.42 198.13 139.59 196.44
  L 139.39 164.10
  L 165.01 166.35
  Q 165.46 166.39 165.48 165.93
  Q 166.08 148.96 169.25 132.27
  Q 169.35 131.75 168.82 131.75
  L 142.03 131.42
  Q 144.30 115.79 149.52 100.94
  Z"
/>
<path fill="#914ef6" d="
  M 179.14 102.35
  L 205.98 103.27
  Q 206.72 103.40 206.98 103.26
  Q 205.87 103.48 205.65 103.90
  Q 199.10 116.26 195.60 130.48
  A 0.96 0.96 0.0 0 1 194.70 131.20
  L 171.11 131.76
  A 1.21 1.21 0.0 0 1 169.89 130.31
  Q 172.75 115.97 179.14 102.35
  Z"
/>
<path fill="#eb58f7" d="
  M 248.93 102.31
  Q 249.13 102.40 249.27 102.45
  Q 249.55 102.54 249.77 102.73
  Q 257.13 108.79 263.31 116.28
  L 256.68 125.25
  L 252.28 129.51
  L 229.81 130.20
  Q 229.66 130.20 230.01 129.55
  Q 231.28 127.18 232.48 124.72
  Q 238.69 111.99 248.93 102.31
  Z"
/>
<path fill="#75fbfd" d="
  M 127.09 108.22
  L 121.48 129.74
  Q 121.38 129.82 121.30 129.92
  Q 121.24 130.01 121.13 130.00
  L 110.72 129.00
  Q 115.56 119.81 123.03 111.89
  L 127.09 108.22
  Z"
/>
<path fill="#e9983e" d="
  M 99.11 110.78
  Q 105.00 111.34 109.43 114.51
  C 97.45 126.29 92.98 146.16 91.87 162.26
  C 89.98 183.31 92.51 218.15 109.25 233.46
  C 98.47 243.27 88.79 233.08 83.30 224.26
  C 71.31 200.96 70.36 170.79 75.70 145.31
  Q 75.76 145.03 75.48 145.11
  Q 75.36 145.14 75.24 145.21
  Q 75.04 145.32 74.92 145.58
  C 67.15 162.06 67.42 182.05 65.06 195.53
  Q 63.64 203.64 54.29 204.47
  C 50.92 196.06 51.92 184.89 52.14 172.76
  Q 52.59 147.88 75.92 140.67
  A 2.02 2.01 88.7 0 0 77.28 139.24
  C 80.30 127.78 86.55 113.61 99.11 110.78
  Z"
/>
<path fill="#ffffff" d="
  M 119.04 110.95
  L 123.03 111.89
  Q 115.56 119.81 110.72 129.00
  Q 102.95 142.96 100.31 158.69
  L 99.13 168.91
  L 91.87 162.26
  C 92.98 146.16 97.45 126.29 109.43 114.51
  Q 113.71 111.23 119.04 110.95
  Z"
/>
<path fill="#ffffff" d="
  M 273.89 110.99
  Q 279.43 111.33 283.18 114.75
  Q 276.21 121.79 272.62 131.34
  Q 266.36 147.97 265.69 165.75
  Q 265.15 180.24 266.32 190.35
  C 267.85 204.91 272.28 222.78 282.99 233.19
  A 0.48 0.48 0.0 0 1 282.86 233.97
  L 275.74 237.49
  Q 271.54 237.40 268.54 235.93
  Q 264.58 233.98 261.10 229.79
  C 247.77 211.11 245.88 184.78 247.28 162.76
  Q 248.52 143.24 256.68 125.25
  L 263.31 116.28
  Q 267.90 111.61 273.89 110.99
  Z"
/>
<path fill="#e9983e" d="
  M 298.95 112.00
  Q 299.14 112.72 299.37 112.88
  Q 306.05 117.34 308.91 123.53
  Q 307.08 132.05 307.20 139.73
  A 0.46 0.45 90.0 0 0 307.64 140.18
  L 316.03 140.48
  C 318.07 141.15 320.44 141.73 322.27 142.60
  Q 335.02 148.66 339.50 162.51
  L 324.71 162.57
  A 2.50 2.50 0.0 0 0 322.22 164.99
  L 322.20 165.67
  Q 322.11 168.71 325.15 168.68
  L 340.47 168.54
  L 340.50 173.10
  L 325.10 172.98
  Q 321.88 172.95 322.24 176.15
  L 322.31 176.79
  A 2.57 2.57 0.0 0 0 324.85 179.07
  L 340.49 179.10
  L 340.49 183.42
  L 324.61 183.39
  A 2.32 2.32 0.0 0 0 322.29 185.71
  L 322.30 186.48
  Q 322.30 189.40 325.22 189.39
  L 340.43 189.32
  Q 341.62 201.54 334.56 211.54
  Q 334.10 212.19 334.22 213.52
  Q 333.58 212.89 333.02 213.52
  Q 327.40 219.79 320.33 222.39
  C 316.24 223.90 309.52 225.26 305.44 223.32
  Q 303.77 222.53 302.31 221.86
  Q 298.99 217.69 298.99 215.25
  Q 298.92 183.19 298.99 151.13
  C 298.99 147.88 299.78 145.60 301.84 143.34
  Q 302.66 142.45 301.64 141.80
  C 296.47 138.48 288.04 140.78 288.06 147.75
  Q 288.11 172.47 288.10 197.36
  Q 276.50 196.88 266.32 190.35
  Q 265.15 180.24 265.69 165.75
  Q 266.36 147.97 272.62 131.34
  Q 276.21 121.79 283.18 114.75
  Q 290.05 109.20 297.69 112.08
  C 298.14 112.25 298.53 112.15 298.95 112.00
  Z"
/>
<path fill="#080808" d="
  M 308.91 123.53
  Q 314.30 131.27 316.03 140.48
  L 307.64 140.18
  A 0.46 0.45 90.0 0 1 307.20 139.73
  Q 307.08 132.05 308.91 123.53
  Z"
/>
<path fill="#080808" d="
  M 256.68 125.25
  Q 248.52 143.24 247.28 162.76
  C 245.88 184.78 247.77 211.11 261.10 229.79
  Q 253.91 233.39 247.20 237.67
  Q 246.80 237.92 246.25 237.56
  L 240.04 227.04
  Q 239.78 226.60 239.29 226.75
  C 202.23 238.24 156.19 241.90 120.34 223.92
  Q 117.89 222.69 110.56 218.29
  Q 109.96 217.93 110.30 218.54
  Q 115.66 228.16 123.25 236.55
  Q 115.41 238.86 109.25 233.46
  C 92.51 218.15 89.98 183.31 91.87 162.26
  L 99.13 168.91
  Q 98.73 178.16 99.76 187.26
  Q 99.90 188.48 101.70 189.03
  Q 108.29 191.06 115.36 192.33
  L 139.59 196.44
  Q 152.42 198.13 165.77 198.23
  L 188.34 197.91
  Q 203.19 197.33 217.11 195.28
  L 231.76 193.21
  A 0.78 0.77 -5.3 0 0 232.43 192.41
  C 232.06 182.66 233.09 174.05 235.14 163.75
  C 238.64 150.97 243.57 140.09 252.28 129.51
  L 256.68 125.25
  Z
  M 149.3630 215.9129
  A 7.30 7.30 0.0 0 0 144.4845 206.8145
  L 135.7155 204.1670
  A 7.30 7.30 0.0 0 0 126.6171 209.0455
  L 126.3570 209.9071
  A 7.30 7.30 0.0 0 0 131.2355 219.0055
  L 140.0045 221.6530
  A 7.30 7.30 0.0 0 0 149.1029 216.7745
  L 149.3630 215.9129
  Z
  M 214.5009 209.0738
  A 7.31 7.31 0.0 0 0 205.3986 204.1727
  L 196.7016 206.7819
  A 7.31 7.31 0.0 0 0 191.8005 215.8842
  L 192.0591 216.7462
  A 7.31 7.31 0.0 0 0 201.1614 221.6473
  L 209.8584 219.0381
  A 7.31 7.31 0.0 0 0 214.7595 209.9358
  L 214.5009 209.0738
  Z"
/>
<path fill="#5e27c2" d="
  M 110.72 129.00
  L 121.13 130.00
  Q 121.24 130.01 121.30 129.92
  Q 121.38 129.82 121.48 129.74
  Q 121.65 129.92 121.76 130.20
  Q 121.20 130.73 121.01 131.75
  Q 118.30 146.04 117.31 160.53
  Q 116.44 161.15 116.00 161.07
  Q 108.33 159.67 100.31 158.69
  Q 102.95 142.96 110.72 129.00
  Z"
/>
<path fill="#ffffff" d="
  M 252.28 129.51
  C 243.57 140.09 238.64 150.97 235.14 163.75
  L 221.05 165.48
  A 0.53 0.53 0.0 0 1 220.47 164.84
  C 223.05 152.94 225.24 141.84 229.81 130.20
  L 252.28 129.51
  Z"
/>
<path fill="#914ef6" d="
  M 230.01 129.55
  Q 229.66 130.20 229.81 130.20
  C 225.24 141.84 223.05 152.94 220.47 164.84
  A 0.53 0.53 0.0 0 0 221.05 165.48
  L 235.14 163.75
  C 233.09 174.05 232.06 182.66 232.43 192.41
  A 0.78 0.77 -5.3 0 1 231.76 193.21
  L 217.11 195.28
  L 220.19 166.98
  A 1.04 1.03 1.9 0 0 219.10 165.83
  L 190.90 167.33
  A 0.87 0.87 0.0 0 0 190.08 168.14
  L 188.34 197.91
  L 165.77 198.23
  L 165.48 167.58
  A 0.92 0.91 -89.4 0 1 166.42 166.65
  L 189.18 167.18
  A 1.19 1.19 0.0 0 0 190.40 166.06
  Q 191.55 148.65 195.38 131.64
  A 0.38 0.37 -83.8 0 1 195.73 131.35
  L 229.10 130.06
  Q 229.35 130.05 229.54 129.91
  L 230.01 129.55
  Z"
/>
<path fill="#eb58f7" d="
  M 121.76 130.20
  L 140.87 131.37
  Q 141.29 131.39 141.50 131.75
  L 141.94 132.48
  C 140.59 143.70 139.92 152.50 139.39 164.10
  L 117.91 161.30
  L 117.31 160.53
  Q 118.30 146.04 121.01 131.75
  Q 121.20 130.73 121.76 130.20
  Z"
/>
<path fill="#75fbfd" d="
  M 142.03 131.42
  L 168.82 131.75
  Q 169.35 131.75 169.25 132.27
  Q 166.08 148.96 165.48 165.93
  Q 165.46 166.39 165.01 166.35
  L 139.39 164.10
  C 139.92 152.50 140.59 143.70 141.94 132.48
  Q 142.11 131.79 142.03 131.42
  Z"
/>
<path fill="#ffffff" d="
  M 302.31 221.86
  C 295.49 227.35 288.01 222.88 287.94 214.73
  Q 287.87 205.97 288.10 197.36
  Q 288.11 172.47 288.06 147.75
  C 288.04 140.78 296.47 138.48 301.64 141.80
  Q 302.66 142.45 301.84 143.34
  C 299.78 145.60 298.99 147.88 298.99 151.13
  Q 298.92 183.19 298.99 215.25
  Q 298.99 217.69 302.31 221.86
  Z"
/>
<path fill="#080808" d="
  M 83.30 224.26
  Q 77.90 224.18 72.72 222.48
  Q 59.59 217.51 54.29 204.47
  Q 63.64 203.64 65.06 195.53
  C 67.42 182.05 67.15 162.06 74.92 145.58
  Q 75.04 145.32 75.24 145.21
  Q 75.36 145.14 75.48 145.11
  Q 75.76 145.03 75.70 145.31
  C 70.36 170.79 71.31 200.96 83.30 224.26
  Z"
/>
<path fill="#914ef6" d="
  M 100.31 158.69
  Q 108.33 159.67 116.00 161.07
  Q 116.44 161.15 117.31 160.53
  L 117.91 161.30
  Q 117.14 161.36 117.03 163.00
  Q 116.07 177.47 115.36 192.33
  Q 108.29 191.06 101.70 189.03
  Q 99.90 188.48 99.76 187.26
  Q 98.73 178.16 99.13 168.91
  L 100.31 158.69
  Z"
/>
<path fill="#75fbfd" d="
  M 117.91 161.30
  L 139.39 164.10
  L 139.59 196.44
  L 115.36 192.33
  Q 116.07 177.47 117.03 163.00
  Q 117.14 161.36 117.91 161.30
  Z"
/>
<path fill="#080808" d="
  M 339.50 162.51
  L 340.47 168.54
  L 325.15 168.68
  Q 322.11 168.71 322.20 165.67
  L 322.22 164.99
  A 2.50 2.50 0.0 0 1 324.71 162.57
  L 339.50 162.51
  Z"
/>
<path fill="#eb58f7" d="
  M 217.11 195.28
  Q 203.19 197.33 188.34 197.91
  L 190.08 168.14
  A 0.87 0.87 0.0 0 1 190.90 167.33
  L 219.10 165.83
  A 1.04 1.03 1.9 0 1 220.19 166.98
  L 217.11 195.28
  Z"
/>
<path fill="#080808" d="
  M 340.50 173.10
  L 340.49 179.10
  L 324.85 179.07
  A 2.57 2.57 0.0 0 1 322.31 176.79
  L 322.24 176.15
  Q 321.88 172.95 325.10 172.98
  L 340.50 173.10
  Z"
/>
<path fill="#080808" d="
  M 340.49 183.42
  L 340.43 189.32
  L 325.22 189.39
  Q 322.30 189.40 322.30 186.48
  L 322.29 185.71
  A 2.32 2.32 0.0 0 1 324.61 183.39
  L 340.49 183.42
  Z"
/>
<path fill="#080808" d="
  M 288.10 197.36
  Q 287.87 205.97 287.94 214.73
  C 288.01 222.88 295.49 227.35 302.31 221.86
  Q 303.77 222.53 305.44 223.32
  C 309.52 225.26 316.24 223.90 320.33 222.39
  Q 327.40 219.79 333.02 213.52
  Q 333.58 212.89 334.22 213.52
  Q 339.93 217.58 343.64 225.15
  Q 327.40 238.37 305.39 240.07
  Q 290.17 241.26 275.74 237.49
  L 282.86 233.97
  A 0.48 0.48 0.0 0 0 282.99 233.19
  C 272.28 222.78 267.85 204.91 266.32 190.35
  Q 276.50 196.88 288.10 197.36
  Z"
/>
<rect fill="#c9fd50" x="-11.88" y="-7.75" transform="translate(137.86,212.91) rotate(16.8)" width="23.76" height="15.50" rx="7.30"/>
<rect fill="#c9fd50" x="-11.85" y="-7.76" transform="translate(203.28,212.91) rotate(-16.7)" width="23.70" height="15.52" rx="7.31"/>
<path fill="#ffffff" d="
  M 246.25 237.56
  Q 246.53 238.14 245.81 238.60
  Q 229.41 248.98 216.94 262.21
  Q 216.39 262.79 215.70 263.21
  C 196.68 268.42 177.89 267.28 159.28 260.86
  Q 138.32 252.69 123.25 236.55
  Q 115.66 228.16 110.30 218.54
  Q 109.96 217.93 110.56 218.29
  Q 117.89 222.69 120.34 223.92
  C 156.19 241.90 202.23 238.24 239.29 226.75
  Q 239.78 226.60 240.04 227.04
  L 246.25 237.56
  Z"
/>
<path fill="#eb58f7" d="
  M 72.72 222.48
  Q 77.90 224.18 83.30 224.26
  C 88.79 233.08 98.47 243.27 109.25 233.46
  Q 115.41 238.86 123.25 236.55
  Q 138.32 252.69 159.28 260.86
  C 164.69 275.85 163.74 290.72 163.37 306.29
  Q 165.24 321.43 164.25 331.50
  C 163.13 342.93 152.43 344.86 143.22 344.86
  Q 142.69 337.97 142.24 331.25
  Q 141.90 326.22 140.54 323.01
  Q 138.42 318.04 132.45 319.82
  Q 122.31 322.99 115.14 331.42
  Q 113.03 333.91 110.93 336.52
  C 109.41 336.50 108.19 334.14 107.32 333.14
  Q 104.03 326.49 102.24 316.75
  C 100.64 308.01 97.24 300.07 91.35 295.15
  Q 77.97 283.98 66.07 271.83
  C 56.94 262.15 56.53 250.07 62.21 238.49
  Q 65.44 231.91 72.12 235.20
  A 0.42 0.42 0.0 0 0 72.73 234.82
  L 72.72 222.48
  Z
  M 139.41 290.60
  C 136.47 284.66 129.97 266.71 121.25 268.48
  C 117.69 269.20 117.88 273.75 120.02 275.99
  Q 123.47 279.61 126.22 283.76
  Q 136.71 299.58 144.21 316.80
  A 1.81 1.81 0.0 0 0 145.98 317.88
  C 147.05 317.81 147.74 317.17 147.83 316.05
  C 148.52 307.31 143.14 298.15 139.41 290.60
  Z
  M 115.53 302.95
  C 119.71 306.61 124.53 308.22 128.76 311.58
  C 129.82 312.42 130.99 312.61 132.03 311.78
  A 1.63 1.62 -38.4 0 0 132.30 309.51
  C 128.75 304.97 123.83 301.49 119.18 297.83
  A 2.54 2.54 0.0 0 0 115.82 298.03
  L 115.38 298.48
  Q 113.07 300.79 115.53 302.95
  Z"
/>
<path fill="#eb58f7" d="
  M 343.64 225.15
  Q 345.37 227.92 345.18 231.70
  C 344.91 236.81 337.20 248.16 339.20 251.86
  C 340.80 254.84 345.39 254.83 347.14 258.05
  C 349.64 262.65 349.64 268.99 348.85 273.90
  Q 347.97 279.28 342.99 282.18
  C 329.55 288.11 314.59 288.76 300.01 290.46
  C 285.98 292.10 267.11 298.72 262.93 313.22
  C 260.99 319.94 260.39 326.82 258.92 333.82
  Q 256.09 342.28 247.54 346.07
  Q 246.77 346.41 246.09 346.19
  Q 245.48 345.98 244.67 345.56
  Q 238.13 331.90 226.89 321.88
  C 224.14 318.14 218.85 318.60 217.09 323.04
  Q 215.78 326.32 215.71 327.25
  Q 214.86 338.25 213.92 349.25
  Q 213.88 349.67 213.69 350.04
  Q 212.96 350.24 212.26 350.15
  C 200.63 348.67 193.31 340.86 192.27 328.99
  C 191.64 321.78 192.84 315.79 193.35 308.89
  Q 194.00 306.69 195.54 299.99
  Q 200.03 280.47 215.09 264.80
  Q 215.53 264.34 215.70 263.21
  Q 216.39 262.79 216.94 262.21
  Q 229.41 248.98 245.81 238.60
  Q 246.53 238.14 246.25 237.56
  Q 246.80 237.92 247.20 237.67
  Q 253.91 233.39 261.10 229.79
  Q 264.58 233.98 268.54 235.93
  Q 271.54 237.40 275.74 237.49
  Q 290.17 241.26 305.39 240.07
  Q 327.40 238.37 343.64 225.15
  Z
  M 210.98 326.63
  C 212.93 308.24 225.45 295.63 238.14 281.39
  Q 243.85 274.97 250.66 271.64
  C 254.52 269.75 257.51 267.57 255.13 263.10
  C 249.61 252.75 233.25 272.36 230.07 276.57
  C 218.99 291.25 206.49 306.30 207.70 326.02
  Q 207.84 328.26 209.86 327.85
  A 1.40 1.40 0.0 0 0 210.98 326.63
  Z
  M 243.43 302.17
  C 237.48 304.48 230.17 307.13 225.42 311.44
  A 1.55 1.55 0.0 0 0 225.64 313.90
  Q 227.01 314.77 228.47 314.34
  Q 236.79 311.87 245.13 309.45
  C 247.91 308.64 252.34 305.89 250.01 302.51
  C 248.24 299.93 245.74 301.26 243.43 302.17
  Z"
/>
<path fill="#080808" d="
  M 238.14 281.39
  C 225.45 295.63 212.93 308.24 210.98 326.63
  A 1.40 1.40 0.0 0 1 209.86 327.85
  Q 207.84 328.26 207.70 326.02
  C 206.49 306.30 218.99 291.25 230.07 276.57
  C 233.25 272.36 249.61 252.75 255.13 263.10
  C 257.51 267.57 254.52 269.75 250.66 271.64
  Q 243.85 274.97 238.14 281.39
  Z"
/>
<path fill="#080808" d="
  M 159.28 260.86
  C 177.89 267.28 196.68 268.42 215.70 263.21
  Q 215.53 264.34 215.09 264.80
  Q 200.03 280.47 195.54 299.99
  Q 194.00 306.69 193.35 308.89
  Q 177.61 312.83 163.37 306.29
  C 163.74 290.72 164.69 275.85 159.28 260.86
  Z"
/>
<path fill="#080808" d="
  M 139.41 290.60
  C 143.14 298.15 148.52 307.31 147.83 316.05
  C 147.74 317.17 147.05 317.81 145.98 317.88
  A 1.81 1.81 0.0 0 1 144.21 316.80
  Q 136.71 299.58 126.22 283.76
  Q 123.47 279.61 120.02 275.99
  C 117.88 273.75 117.69 269.20 121.25 268.48
  C 129.97 266.71 136.47 284.66 139.41 290.60
  Z"
/>
<path fill="#080808" d="
  M 66.07 271.83
  Q 77.97 283.98 91.35 295.15
  C 97.24 300.07 100.64 308.01 102.24 316.75
  Q 104.03 326.49 107.32 333.14
  C 102.95 330.93 99.06 319.37 97.32 314.80
  C 95.24 309.32 92.34 304.13 87.64 301.58
  Q 69.43 291.69 47.45 296.53
  Q 55.90 282.82 66.07 271.83
  Z"
/>
<path fill="#5e27c2" d="
  M 107.32 333.14
  C 108.19 334.14 109.41 336.50 110.93 336.52
  Q 111.04 337.32 111.53 337.72
  Q 118.37 343.30 127.57 344.91
  L 126.36 363.32
  Q 77.83 343.14 46.35 300.87
  Q 45.74 300.05 45.64 299.51
  L 47.45 296.53
  Q 69.43 291.69 87.64 301.58
  C 92.34 304.13 95.24 309.32 97.32 314.80
  C 99.06 319.37 102.95 330.93 107.32 333.14
  Z"
/>
<path fill="#080808" d="
  M 128.76 311.58
  C 124.53 308.22 119.71 306.61 115.53 302.95
  Q 113.07 300.79 115.38 298.48
  L 115.82 298.03
  A 2.54 2.54 0.0 0 1 119.18 297.83
  C 123.83 301.49 128.75 304.97 132.30 309.51
  A 1.63 1.62 -38.4 0 1 132.03 311.78
  C 130.99 312.61 129.82 312.42 128.76 311.58
  Z"
/>
<path fill="#080808" d="
  M 243.43 302.17
  C 245.74 301.26 248.24 299.93 250.01 302.51
  C 252.34 305.89 247.91 308.64 245.13 309.45
  Q 236.79 311.87 228.47 314.34
  Q 227.01 314.77 225.64 313.90
  A 1.55 1.55 0.0 0 1 225.42 311.44
  C 230.17 307.13 237.48 304.48 243.43 302.17
  Z"
/>
<path fill="#5e27c2" d="
  M 163.37 306.29
  Q 177.61 312.83 193.35 308.89
  C 192.84 315.79 191.64 321.78 192.27 328.99
  C 193.31 340.86 200.63 348.67 212.26 350.15
  Q 212.96 350.24 213.69 350.04
  Q 214.00 350.44 213.97 350.75
  C 213.50 356.11 211.74 363.73 215.47 368.02
  C 221.67 375.15 231.78 369.44 231.05 361.00
  Q 230.58 355.66 230.33 349.87
  Q 238.97 349.17 244.50 347.28
  Q 245.97 346.78 244.67 345.56
  Q 245.48 345.98 246.09 346.19
  Q 246.77 346.41 247.54 346.07
  Q 256.09 342.28 258.92 333.82
  Q 266.58 327.54 275.35 318.86
  C 290.23 304.15 314.64 307.20 331.18 317.61
  A 0.51 0.51 0.0 0 1 331.28 318.39
  C 292.39 358.85 241.61 379.22 185.44 376.73
  A 1.29 1.29 0.0 0 1 184.20 375.37
  Q 184.90 361.12 183.68 347.42
  C 192.45 345.19 190.87 335.59 189.99 328.86
  C 189.42 324.54 189.17 321.27 184.76 320.28
  C 180.57 319.33 169.38 317.45 167.34 323.32
  C 165.72 328.00 166.26 333.48 166.40 338.37
  C 166.53 342.88 168.07 345.39 172.40 346.45
  Q 170.48 360.75 170.42 374.58
  Q 170.42 375.19 169.82 375.10
  Q 155.53 372.89 141.57 368.73
  Q 144.84 364.68 144.44 360.75
  Q 143.64 352.74 143.22 344.86
  C 152.43 344.86 163.13 342.93 164.25 331.50
  Q 165.24 321.43 163.37 306.29
  Z"
/>
<path fill="#ffffff" d="
  M 143.22 344.86
  Q 143.64 352.74 144.44 360.75
  Q 144.84 364.68 141.57 368.73
  L 126.36 363.32
  L 127.57 344.91
  Q 128.08 338.10 128.64 330.67
  C 128.81 328.49 129.27 325.81 129.85 324.09
  Q 130.38 322.51 132.45 319.82
  Q 138.42 318.04 140.54 323.01
  Q 141.90 326.22 142.24 331.25
  Q 142.69 337.97 143.22 344.86
  Z"
/>
<path fill="#ffffff" d="
  M 183.68 347.42
  Q 178.19 347.81 172.40 346.45
  C 168.07 345.39 166.53 342.88 166.40 338.37
  C 166.26 333.48 165.72 328.00 167.34 323.32
  C 169.38 317.45 180.57 319.33 184.76 320.28
  C 189.17 321.27 189.42 324.54 189.99 328.86
  C 190.87 335.59 192.45 345.19 183.68 347.42
  Z
  M 182.4211 326.6792
  A 2.31 2.31 0.0 0 0 180.0672 324.4139
  L 176.1679 324.4888
  A 2.31 2.31 0.0 0 0 173.9027 326.8427
  L 174.0989 337.0608
  A 2.31 2.31 0.0 0 0 176.4528 339.3261
  L 180.3521 339.2512
  A 2.31 2.31 0.0 0 0 182.6173 336.8973
  L 182.4211 326.6792
  Z"
/>
<path fill="#ffffff" d="
  M 226.89 321.88
  Q 228.76 327.04 229.07 332.25
  Q 229.61 341.28 230.33 349.87
  Q 230.58 355.66 231.05 361.00
  C 231.78 369.44 221.67 375.15 215.47 368.02
  C 211.74 363.73 213.50 356.11 213.97 350.75
  Q 214.00 350.44 213.69 350.04
  Q 213.88 349.67 213.92 349.25
  Q 214.86 338.25 215.71 327.25
  Q 215.78 326.32 217.09 323.04
  C 218.85 318.60 224.14 318.14 226.89 321.88
  Z"
/>
<path fill="#080808" d="
  M 132.45 319.82
  Q 130.38 322.51 129.85 324.09
  C 129.27 325.81 128.81 328.49 128.64 330.67
  Q 128.08 338.10 127.57 344.91
  Q 118.37 343.30 111.53 337.72
  Q 111.04 337.32 110.93 336.52
  Q 113.03 333.91 115.14 331.42
  Q 122.31 322.99 132.45 319.82
  Z"
/>
<path fill="#080808" d="
  M 226.89 321.88
  Q 238.13 331.90 244.67 345.56
  Q 245.97 346.78 244.50 347.28
  Q 238.97 349.17 230.33 349.87
  Q 229.61 341.28 229.07 332.25
  Q 228.76 327.04 226.89 321.88
  Z"
/>
<rect fill="#5e27c2" x="-4.26" y="-7.42" transform="translate(178.26,331.87) rotate(-1.1)" width="8.52" height="14.84" rx="2.31"/>
</svg>
