<?xml version="1.0" encoding="UTF-8"?>
<svg xmlns="http://www.w3.org/2000/svg" xmlns:xlink="http://www.w3.org/1999/xlink" viewBox="0 0 438 253">
  <defs>
    <style>
      .cls-1 {
        fill: url(#linear-gradient);
      }

      .cls-2 {
        fill: #f7931e;
      }

      .cls-3 {
        fill: #fff;
      }

      .cls-4 {
        fill: #fbb03b;
      }

      .cls-5 {
        fill: url(#linear-gradient-3);
      }

      .cls-6 {
        fill: url(#linear-gradient-4);
      }

      .cls-7 {
        fill: url(#linear-gradient-2);
      }
    </style>
    <linearGradient id="linear-gradient" x1="151.5" y1="5.43" x2="151.5" y2="139.99" gradientUnits="userSpaceOnUse">
      <stop offset="0" stop-color="#49ca74"/>
      <stop offset="1" stop-color="#45c06e"/>
    </linearGradient>
    <linearGradient id="linear-gradient-2" x1="272.5" y1="4.75" x2="272.5" y2="136.98" gradientUnits="userSpaceOnUse">
      <stop offset="0" stop-color="#49ca74"/>
      <stop offset="1" stop-color="#379958"/>
    </linearGradient>
    <linearGradient id="linear-gradient-3" x1="390.99" y1="1.84" x2="390.99" y2="140.34" xlink:href="#linear-gradient-2"/>
    <linearGradient id="linear-gradient-4" x1="45.01" y1="2.57" x2="45.01" y2="143.08" xlink:href="#linear-gradient-2"/>
  </defs>
  <g id="Layer_1" data-name="Layer 1">
    <g>
      <g>
        <path class="cls-3" d="m163.13,199.42l-2.94-2.87h-10.87l-1.81,1.81v27.35l1.81,1.81h10.87l2.94-2.87,5.25,5.25-5.06,5.12h-17.11l-6.18-6.18v-33.6l6.18-6.18h17.11l5.06,5.12-5.25,5.25Z"/>
        <path class="cls-3" d="m173.82,205.23l6.18-6.18h15.11l6.18,6.18v23.61l-6.18,6.18h-15.11l-6.18-6.18v-23.61Zm18.17,22.29l1.81-1.81v-17.36l-1.81-1.81h-8.87l-1.81,1.81v17.36l1.81,1.81h8.87Z"/>
        <path class="cls-3" d="m205.56,205.16l6.18-6.18h13.8v-13.93h7.49v49.96h-7.49v-2.69l-2.69,2.69h-11.12l-6.18-6.18v-23.67Zm9.31,22.36h4.87l5.81-5.81v-13.43l-1.81-1.81h-8.87l-1.81,1.81v17.42l1.81,1.81Z"/>
        <path class="cls-3" d="m239.98,205.23l6.18-6.18h15.11l6.18,6.18.06,9.87-6.18,6.18h-13.86v4.43l1.81,1.81h10.12l2.94-2.87,5.25,5.25-5.06,5.12h-16.36l-6.18-6.18v-23.61Zm18.24,8.56l1.81-1.81-.06-3.62-1.81-1.81h-8.87l-1.81,1.81v5.43h10.74Z"/>
        <path class="cls-3" d="m278.9,224.65l2.94,2.87h10.37l1.81-1.81v-8.49l-1.81-1.81h-12.24l-6.18-6.18v-13.99l6.18-6.18h15.99l5.06,5.12-5.25,5.25-2.94-2.87h-9.74l-1.81,1.81v7.74l1.81,1.81h12.24l6.18,6.18v14.74l-6.18,6.18h-16.61l-5.06-5.12,5.25-5.25Z"/>
        <path class="cls-3" d="m335.18,229.89l-5.06,5.12h-11.12l-6.18-6.18v-22.29h-5.25v-7.49h5.25v-6.74h7.49v6.74h10.37v7.49h-10.37v19.17l1.81,1.81h4.87l2.94-2.87,5.25,5.25Z"/>
        <path class="cls-3" d="m340.69,205.23l6.18-6.18h15.11l6.18,6.18v23.61l-6.18,6.18h-15.11l-6.18-6.18v-23.61Zm18.17,22.29l1.81-1.81v-17.36l-1.81-1.81h-8.87l-1.81,1.81v17.36l1.81,1.81h8.87Z"/>
        <path class="cls-3" d="m382.67,199.04v2.62l2.69-2.69h11.12l5.06,5.12-5.25,5.25-2.94-2.87h-4.87l-5.81,5.81v22.73h-7.49v-35.97h7.49Z"/>
        <path class="cls-3" d="m414.47,199.04v26.67l1.81,1.81h8.87l1.81-1.81v-26.67h7.49v43.78l-6.18,6.18h-16.61l-5.06-5.12,5.25-5.25,2.94,2.87h10.37l1.81-1.81v-4.68h-13.8l-6.18-6.18v-29.79h7.49Z"/>
      </g>
      <g>
        <path class="cls-2" d="m83.03,247.29v-7.59l24.06-9.75-28.67-11.73,1.81-7.22,38.93,15.34-1.73,7.3-34.39,13.65Z"/>
        <path class="cls-4" d="m117.27,186.77v7.59l-24.06,9.75,28.67,11.73-1.81,7.22-38.93-15.34,1.73-7.3,34.39-13.65Z"/>
      </g>
      <g>
        <path class="cls-3" d="m7.47,201.95h2.84l-2.01,9.47c.8-1.19,2.2-2.41,4.36-2.41,3.61,0,4.98,3.23,3.64,9.54-1.26,5.85-3.54,9.37-7.26,9.37-2.5,0-3.38-1.43-3.66-2.6-.18.82-.44,1.8-.6,2.31H2c.25-1.1.62-2.88,1.09-5.06l4.38-20.63Zm6,16.53c1.01-4.78.43-7-1.9-7-2.72,0-3.96,2.8-4.83,7.03-1,4.81-.42,6.97,2.05,6.97,2.15,0,3.72-2.4,4.68-7Z"/>
        <path class="cls-3" d="m22.81,209.3c.44,7.52.36,13.63.31,15.44h.04c.93-2.4,3.86-9.09,6.77-15.44h2.92l-9.09,19.47c-2.56,5.47-4.01,5.84-6.66,5.84-.5,0-1.34-.11-1.76-.21l.55-2.52c.28.07.89.16,1.45.16,1.65,0,2.48-.93,3.69-3.62l-1.13-19.12h2.92Z"/>
      </g>
    </g>
  </g>
  <g id="Layer_4" data-name="Layer 4">
    <g>
      <polygon class="cls-1" points="108.01 26 139.4 26 139.4 118 108.01 118 108.01 142 194.99 142 194.99 118 163.39 118 163.39 26 194.99 26 194.99 2 108.01 2 108.01 26"/>
      <path class="cls-7" d="m263.39,2h-41.38s0,140,0,140h41.38c38.6,0,59.6-26.4,59.6-69.8S301.19,2,263.39,2Zm0,116h-17.2V26h17.2c25.8,0,35.6,25.2,35.6,46.2,0,19.8-9.8,45.8-35.6,45.8Z"/>
      <polygon class="cls-5" points="433.99 27 433.99 2 347.99 2 347.99 142 433.99 142 433.99 117 372.99 117 372.99 80 417.99 80 417.99 56 372.99 56 372.99 27 433.99 27"/>
      <polygon class="cls-6" points="28.01 2 2.01 52 26.01 52 47.01 9 49.01 9 46.01 15 64.01 52 88.01 52 64.01 2 28.01 2"/>
    </g>
  </g>
</svg>