<?xml version="1.0" encoding="UTF-8"?>
<svg id="Layer_4" data-name="Layer 4"
  xmlns="http://www.w3.org/2000/svg" viewBox="0 0 680 360">
  <g>
    <g>
      <path fill="currentColor" stroke="currentColor" d="m80.76,87.41l38.86-6.38,69.82,193.37h-40.98l-18.21-45.53h-61.32l-17.91,45.53H10.04L80.76,87.41Zm38.25,106.55l-18.82-47.35-19.43,47.35h38.25Z"/>
      <path fill="currentColor" stroke="currentColor" d="m340,274.4V87.41h65.27c26.11,0,48.57,9.41,65.27,26.71,17.61,19.12,26.41,40.98,26.41,68s-8.8,48.27-26.41,67.09c-15.79,17-37.64,25.2-65.27,25.2h-65.27Zm65.27-30.66c31.27,0,50.39-23.68,50.39-61.62s-20.03-64.05-50.39-64.05h-23.98v125.67h23.98Z"/>
      <path fill="currentColor" stroke="currentColor" d="m531.54,87.41h138.42v33.69h-97.14v39.16h87.12l-9.71,34.91h-77.41v45.23h97.14v34h-138.42V87.41Z"/>
    </g>
    <g>
      <path style="fill: none; stroke: #f7931e; stroke-miterlimit: 10; stroke-width: 36px;" d="m207.51,28.5h12.44c19.88,0,36,16.12,36,36v231.01c0,19.88-16.12,36-36,36h-12.44"/>
      <path style="fill: none; stroke: #f7931e; stroke-miterlimit: 10; stroke-width: 36px;" d="m304.94,28.5h-12.44c-19.88,0-36,16.12-36,36v231.01c0,19.88,16.12,36,36,36h12.44"/>
    </g>
  </g>
  <line style="fill: none; stroke: #f7931e; stroke-miterlimit: 10; stroke-width: 36px;" x1="207.71" y1="234.66" x2="287.71" y2="234.66"/>
</svg>