<svg xmlns="http://www.w3.org/2000/svg" xmlns:xlink="http://www.w3.org/1999/xlink" width="1080" zoomAndPan="magnify"
	viewBox="0 0 810 809.999993" height="1080" preserveAspectRatio="xMidYMid meet" version="1.0">
	<path fill="#000000"
		d="M 232.257812 267.074219 L 229.253906 265.390625 C 219.394531 259.625 206.894531 262.988281 201.125 272.84375 C 195.355469 282.699219 198.722656 295.199219 208.578125 300.96875 L 211.582031 302.652344 C 214.828125 304.578125 218.433594 305.417969 221.921875 305.417969 C 229.011719 305.417969 235.863281 301.8125 239.710938 295.199219 C 245.480469 285.34375 242.113281 272.84375 232.257812 267.074219 Z M 232.257812 267.074219 "
		fill-opacity="1" fill-rule="nonzero" />
	<path fill="#000000"
		d="M 146.4375 264.671875 L 149.441406 266.355469 C 152.6875 268.277344 156.292969 269.117188 159.777344 269.117188 C 166.871094 269.117188 173.722656 265.390625 177.566406 258.902344 C 183.335938 249.046875 179.972656 236.546875 170.117188 230.777344 L 167.109375 229.09375 C 157.253906 223.445312 144.753906 226.6875 138.984375 236.546875 C 133.214844 246.402344 136.582031 258.902344 146.4375 264.671875 Z M 146.4375 264.671875 "
		fill-opacity="1" fill-rule="nonzero" />
	<path fill="#000000"
		d="M 119.753906 225.726562 C 125.402344 215.871094 122.15625 203.371094 112.300781 197.601562 L 73.839844 175.246094 C 63.984375 169.476562 51.484375 172.839844 45.714844 182.699219 C 40.0625 192.554688 43.308594 205.054688 53.164062 210.824219 L 91.628906 233.179688 C 94.875 235.101562 98.359375 235.945312 101.964844 235.945312 C 109.054688 235.945312 115.90625 232.339844 119.753906 225.726562 Z M 119.753906 225.726562 "
		fill-opacity="1" fill-rule="nonzero" />
	<path fill="#000000"
		d="M 143.671875 437.03125 C 141.75 425.855469 131.050781 418.402344 119.875 420.324219 L 116.507812 420.925781 C 105.332031 422.847656 97.878906 433.546875 99.800781 444.726562 C 101.484375 454.699219 110.257812 461.792969 119.992188 461.792969 C 121.195312 461.792969 122.277344 461.792969 123.480469 461.433594 L 126.84375 460.832031 C 138.023438 458.90625 145.476562 448.210938 143.550781 437.03125 Z M 143.671875 437.03125 "
		fill-opacity="1" fill-rule="nonzero" />
	<path fill="#000000"
		d="M 170.714844 432.34375 C 172.398438 442.320312 181.171875 449.414062 190.910156 449.414062 C 192.113281 449.414062 193.3125 449.414062 194.394531 449.050781 L 197.761719 448.449219 C 208.9375 446.527344 216.390625 435.832031 214.46875 424.652344 C 212.546875 413.472656 201.847656 406.023438 190.667969 407.945312 L 187.304688 408.546875 C 176.125 410.46875 168.554688 421.167969 170.597656 432.34375 Z M 170.714844 432.34375 "
		fill-opacity="1" fill-rule="nonzero" />
	<path fill="#000000"
		d="M 53.886719 432.222656 L 10.015625 439.796875 C -1.164062 441.71875 -8.617188 452.417969 -6.691406 463.59375 C -5.007812 473.570312 3.765625 480.664062 13.5 480.664062 C 14.703125 480.664062 15.785156 480.664062 16.984375 480.421875 L 60.859375 472.851562 C 72.035156 470.925781 79.488281 460.230469 77.566406 449.050781 C 75.640625 437.875 64.945312 430.421875 53.765625 432.34375 Z M 53.886719 432.222656 "
		fill-opacity="1" fill-rule="nonzero" />
	<path fill="#000000"
		d="M 249.683594 542.683594 L 247.523438 545.328125 C 240.191406 553.984375 241.273438 566.964844 249.925781 574.296875 C 253.773438 577.542969 258.460938 579.105469 263.148438 579.105469 C 269.035156 579.105469 274.804688 576.578125 278.894531 571.773438 L 281.054688 569.128906 C 288.386719 560.472656 287.308594 547.492188 278.652344 540.160156 C 270 532.828125 257.015625 533.910156 249.683594 542.5625 Z M 249.683594 542.683594 "
		fill-opacity="1" fill-rule="nonzero" />
	<path fill="#000000"
		d="M 203.167969 597.734375 L 201.007812 600.378906 C 193.675781 609.03125 194.757812 622.011719 203.53125 629.34375 C 207.375 632.589844 212.0625 634.152344 216.75 634.152344 C 222.640625 634.152344 228.410156 631.628906 232.496094 626.820312 L 234.660156 624.175781 C 241.992188 615.523438 240.910156 602.542969 232.136719 595.210938 C 223.484375 587.878906 210.5 588.960938 203.167969 597.734375 Z M 203.167969 597.734375 "
		fill-opacity="1" fill-rule="nonzero" />
	<path fill="#000000"
		d="M 160.019531 649.417969 L 131.292969 683.433594 C 123.960938 692.085938 125.042969 705.070312 133.695312 712.402344 C 137.542969 715.644531 142.230469 717.207031 146.917969 717.207031 C 152.808594 717.207031 158.578125 714.683594 162.664062 709.875 L 191.390625 675.863281 C 198.722656 667.207031 197.640625 654.226562 188.988281 646.894531 C 180.332031 639.5625 167.351562 640.644531 160.019531 649.296875 Z M 160.019531 649.417969 "
		fill-opacity="1" fill-rule="nonzero" />
	<path fill="#000000"
		d="M 401.613281 653.503906 C 390.316406 653.503906 379.976562 668.769531 379.976562 680.066406 L 379.976562 683.554688 C 379.976562 694.851562 390.195312 703.027344 401.613281 703.027344 C 412.910156 703.027344 421.203125 694.972656 421.203125 683.675781 L 421.203125 680.1875 C 421.203125 668.890625 413.03125 653.503906 401.734375 653.503906 Z M 401.613281 653.503906 "
		fill-opacity="1" fill-rule="nonzero" />
	<path fill="#000000"
		d="M 401.851562 587.515625 C 390.554688 587.515625 381.300781 596.652344 381.300781 607.949219 L 381.300781 613.839844 C 381.300781 625.257812 390.433594 636.917969 401.734375 636.917969 C 413.03125 636.917969 421.085938 624.417969 421.085938 613.121094 L 421.085938 610.59375 C 421.085938 599.296875 413.152344 587.515625 401.851562 587.515625 Z M 401.851562 587.515625 "
		fill-opacity="1" fill-rule="nonzero" />
	<path fill="#000000"
		d="M 401.492188 727.664062 C 390.195312 727.664062 380.9375 736.558594 380.9375 747.980469 L 380.9375 791.007812 C 380.820312 802.308594 389.953125 810.121094 401.371094 810.121094 C 412.671875 810.121094 421.925781 802.308594 421.925781 791.007812 L 421.925781 747.5 C 422.046875 736.199219 412.910156 727.785156 401.492188 727.785156 Z M 401.492188 727.664062 "
		fill-opacity="1" fill-rule="nonzero" />
	<path fill="#000000"
		d="M 604.023438 605.066406 L 601.859375 602.421875 C 594.648438 593.769531 581.667969 592.566406 572.890625 599.777344 C 564.117188 606.988281 563.035156 619.96875 570.246094 628.746094 L 572.410156 631.390625 C 576.5 636.316406 582.265625 638.839844 588.15625 638.839844 C 592.84375 638.839844 597.414062 637.277344 601.257812 634.03125 C 610.03125 626.820312 611.113281 613.839844 603.902344 605.066406 Z M 604.023438 605.066406 "
		fill-opacity="1" fill-rule="nonzero" />
	<path fill="#000000"
		d="M 555.703125 547.25 C 548.492188 538.597656 535.511719 537.394531 526.738281 544.609375 C 517.960938 551.820312 516.882812 564.800781 524.09375 573.574219 L 526.257812 576.21875 C 530.34375 581.148438 536.234375 583.671875 542.121094 583.671875 C 546.808594 583.671875 551.378906 582.109375 555.222656 578.863281 C 563.996094 571.652344 565.078125 558.671875 557.867188 549.894531 Z M 555.703125 547.25 "
		fill-opacity="1" fill-rule="nonzero" />
	<path fill="#000000"
		d="M 644.769531 654.585938 C 637.4375 645.933594 624.578125 644.730469 615.800781 651.941406 C 607.027344 659.273438 605.945312 672.136719 613.15625 680.910156 L 641.644531 715.046875 C 645.730469 719.972656 651.5 722.378906 657.390625 722.378906 C 662.078125 722.378906 666.644531 720.816406 670.492188 717.570312 C 679.144531 710.359375 680.347656 697.375 673.136719 688.601562 L 644.648438 654.464844 Z M 644.769531 654.585938 "
		fill-opacity="1" fill-rule="nonzero" />
	<path fill="#000000"
		d="M 594.769531 431.382812 C 592.722656 442.5625 600.175781 453.257812 611.355469 455.300781 L 614.71875 455.902344 C 615.921875 456.144531 617.125 456.261719 618.328125 456.261719 C 628.0625 456.261719 636.714844 449.292969 638.519531 439.316406 C 640.5625 428.136719 633.109375 417.441406 621.933594 415.398438 L 618.566406 414.796875 C 607.386719 412.871094 596.691406 420.203125 594.769531 431.382812 Z M 594.769531 431.382812 "
		fill-opacity="1" fill-rule="nonzero" />
	<path fill="#000000"
		d="M 692.726562 428.015625 L 689.363281 427.417969 C 678.183594 425.492188 667.484375 432.824219 665.5625 444.003906 C 663.519531 455.183594 670.972656 465.878906 682.148438 467.921875 L 685.515625 468.523438 C 686.71875 468.765625 687.917969 468.882812 689.121094 468.882812 C 698.859375 468.882812 707.511719 461.914062 709.316406 451.9375 C 711.359375 440.757812 703.90625 430.0625 692.726562 428.015625 Z M 692.726562 428.015625 "
		fill-opacity="1" fill-rule="nonzero" />
	<path fill="#000000"
		d="M 799.339844 447.851562 L 755.589844 440.035156 C 744.410156 438.113281 733.714844 445.445312 731.671875 456.625 C 729.628906 467.800781 737.078125 478.5 748.257812 480.542969 L 792.007812 488.355469 C 793.210938 488.597656 794.414062 488.714844 795.613281 488.714844 C 805.351562 488.714844 814.003906 481.746094 815.808594 471.769531 C 817.851562 460.589844 810.398438 449.894531 799.222656 447.851562 Z M 799.339844 447.851562 "
		fill-opacity="1" fill-rule="nonzero" />
	<path fill="#000000"
		d="M 591.882812 311.308594 C 595.367188 311.308594 598.855469 310.464844 602.101562 308.542969 L 605.105469 306.859375 C 614.960938 301.210938 618.324219 288.710938 612.675781 278.855469 C 607.027344 269 594.527344 265.632812 584.671875 271.28125 L 581.667969 272.964844 C 571.808594 278.613281 568.445312 291.113281 574.09375 300.96875 C 577.941406 307.582031 584.792969 311.308594 592.003906 311.308594 Z M 591.882812 311.308594 "
		fill-opacity="1" fill-rule="nonzero" />
	<path fill="#000000"
		d="M 654.265625 275.488281 C 657.75 275.488281 661.234375 274.648438 664.480469 272.722656 L 667.484375 271.042969 C 677.34375 265.390625 680.707031 252.890625 675.058594 243.035156 C 669.410156 233.179688 656.910156 229.816406 647.054688 235.464844 L 644.046875 237.144531 C 634.191406 242.796875 630.828125 255.296875 636.476562 265.152344 C 640.320312 271.761719 647.171875 275.488281 654.265625 275.488281 Z M 654.265625 275.488281 "
		fill-opacity="1" fill-rule="nonzero" />
	<path fill="#000000"
		d="M 769.050781 189.910156 C 763.402344 180.054688 750.902344 176.6875 741.046875 182.335938 L 702.464844 204.453125 C 692.605469 210.101562 689.242188 222.601562 694.890625 232.457031 C 698.738281 239.070312 705.589844 242.796875 712.679688 242.796875 C 716.164062 242.796875 719.652344 241.953125 722.898438 240.03125 L 761.480469 217.914062 C 771.335938 212.265625 774.699219 199.765625 769.050781 189.910156 Z M 769.050781 189.910156 "
		fill-opacity="1" fill-rule="nonzero" />
	<path fill="#000000"
		d="M 489.714844 172.480469 C 479.140625 168.636719 467.238281 174.042969 463.273438 184.742188 L 462.070312 187.988281 C 458.105469 198.683594 463.632812 210.464844 474.332031 214.429688 C 476.617188 215.269531 479.019531 215.632812 481.421875 215.632812 C 489.835938 215.632812 497.648438 210.464844 500.773438 202.167969 L 501.976562 198.925781 C 505.941406 188.226562 500.414062 176.449219 489.835938 172.480469 Z M 489.714844 172.480469 "
		fill-opacity="1" fill-rule="nonzero" />
	<path fill="#000000"
		d="M 525.535156 134.621094 L 526.738281 131.375 C 530.703125 120.675781 525.175781 108.898438 514.597656 105.050781 C 504.019531 101.203125 492.121094 106.613281 488.152344 117.3125 L 486.953125 120.554688 C 482.984375 131.253906 488.515625 143.03125 499.210938 146.878906 C 501.496094 147.722656 503.898438 148.082031 506.304688 148.082031 C 514.71875 148.082031 522.53125 142.914062 525.65625 134.621094 Z M 525.535156 134.621094 "
		fill-opacity="1" fill-rule="nonzero" />
	<path fill="#000000"
		d="M 552.097656 4.085938 C 541.402344 0.121094 529.621094 5.648438 525.773438 16.347656 L 510.390625 58.054688 C 506.425781 68.753906 511.953125 80.53125 522.648438 84.378906 C 524.933594 85.21875 527.339844 85.578125 529.742188 85.578125 C 538.15625 85.578125 545.96875 80.410156 549.09375 72.117188 L 564.359375 30.410156 C 568.324219 19.710938 562.796875 7.933594 552.21875 4.085938 Z M 552.097656 4.085938 "
		fill-opacity="1" fill-rule="nonzero" />
	<path fill="#000000"
		d="M 330.335938 118.03125 L 329.136719 114.785156 C 325.289062 104.089844 313.507812 98.5625 302.8125 102.40625 C 292.113281 106.253906 286.585938 118.03125 290.433594 128.730469 L 291.632812 131.976562 C 294.640625 140.390625 302.570312 145.558594 310.984375 145.558594 C 313.269531 145.558594 315.671875 145.195312 317.957031 144.355469 C 328.652344 140.507812 334.183594 128.730469 330.335938 118.03125 Z M 330.335938 118.03125 "
		fill-opacity="1" fill-rule="nonzero" />
	<path fill="#000000"
		d="M 353.535156 182.457031 C 349.6875 171.761719 337.910156 166.230469 327.210938 170.078125 C 316.515625 173.921875 310.984375 185.703125 314.832031 196.398438 L 316.035156 199.644531 C 319.039062 208.058594 326.972656 213.226562 335.386719 213.226562 C 337.667969 213.226562 340.074219 212.867188 342.355469 212.027344 C 353.054688 208.179688 358.582031 196.398438 354.738281 185.703125 Z M 353.535156 182.457031 "
		fill-opacity="1" fill-rule="nonzero" />
	<path fill="#000000"
		d="M 307.859375 55.410156 L 292.714844 13.582031 C 288.871094 2.882812 277.089844 -2.644531 266.394531 1.203125 C 255.695312 5.046875 250.167969 16.828125 254.011719 27.523438 L 269.15625 69.351562 C 272.160156 77.765625 280.09375 82.933594 288.507812 82.933594 C 290.792969 82.933594 293.195312 82.574219 295.480469 81.734375 C 306.175781 77.886719 311.707031 66.109375 307.859375 55.410156 Z M 307.859375 55.410156 "
		fill-opacity="1" fill-rule="nonzero" />
</svg>
