<?xml version="1.0" encoding="UTF-8" standalone="no"?>
<!DOCTYPE svg PUBLIC "-//W3C//DTD SVG 1.1//EN" "http://www.w3.org/Graphics/SVG/1.1/DTD/svg11.dtd">
<svg xmlns="http://www.w3.org/2000/svg" version="1.1" viewBox="0.00 0.00 181.00 256.00">
<path fill="#000000" d="
  M 175.50 256.00
  L 161.85 256.00
  Q 161.87 253.15 162.59 250.19
  Q 163.58 246.12 163.69 244.48
  Q 164.30 235.02 161.47 225.97
  C 159.78 220.58 152.52 213.57 157.13 207.85
  C 169.32 192.72 167.98 169.91 157.59 153.93
  C 155.93 151.38 155.92 147.92 158.03 145.62
  C 178.72 123.01 159.46 80.46 127.55 85.60
  Q 123.99 86.17 122.66 82.94
  C 118.36 72.54 109.41 65.98 98.76 62.88
  C 82.79 58.22 63.79 67.96 57.70 83.38
  C 56.93 85.34 54.72 85.92 52.79 85.61
  C 45.23 84.37 37.53 85.97 31.28 90.12
  C 14.40 101.32 8.68 123.91 19.39 141.72
  Q 20.40 143.39 21.93 144.61
  C 24.87 146.96 25.43 150.84 23.40 153.96
  C 14.26 167.98 12.28 186.91 19.86 201.91
  C 22.10 206.33 27.40 209.89 24.69 215.66
  C 22.94 219.40 20.42 222.75 19.26 226.74
  Q 16.72 235.41 17.32 244.48
  Q 17.42 246.05 18.42 250.18
  Q 19.15 253.18 19.09 256.00
  L 5.63 256.00
  Q 3.48 249.42 3.55 241.50
  C 3.64 231.58 5.13 221.72 10.33 213.47
  Q 10.61 213.02 10.31 212.57
  C -1.85 194.49 -0.63 170.46 8.84 151.42
  Q 9.11 150.87 8.76 150.37
  C -3.51 132.56 -2.13 107.90 10.75 91.20
  C 13.73 87.34 17.57 84.16 21.01 80.65
  Q 21.33 80.32 21.25 79.87
  Q 18.52 64.25 20.58 48.63
  Q 22.13 36.95 27.76 27.41
  C 32.04 20.16 40.58 15.86 48.63 20.19
  C 59.43 25.99 63.55 42.97 64.68 54.77
  Q 64.74 55.45 65.33 55.11
  C 81.47 45.82 99.19 45.53 115.59 55.32
  Q 116.24 55.71 116.31 54.95
  C 117.43 42.39 123.41 17.96 139.54 18.46
  C 153.64 18.91 159.16 38.60 160.56 50.16
  Q 162.25 64.07 160.14 77.96
  C 160.05 78.61 159.72 79.16 159.56 79.78
  Q 159.45 80.22 159.79 80.54
  C 166.47 86.79 171.87 91.70 175.01 98.76
  Q 176.44 101.98 177.74 106.27
  C 182.38 121.51 180.69 136.93 172.00 150.11
  Q 171.69 150.57 171.95 151.07
  C 181.64 169.85 182.87 194.74 170.71 212.55
  Q 170.41 212.99 170.68 213.44
  Q 174.21 219.15 175.84 226.43
  Q 179.28 241.75 175.50 256.00
  Z
  M 51.66 67.63
  C 51.87 56.52 50.16 40.02 42.76 32.56
  A 1.12 1.12 0.0 0 0 41.18 32.55
  C 37.60 36.10 35.80 42.07 34.81 47.01
  Q 32.16 60.26 33.99 73.29
  A 0.29 0.29 0.0 0 0 34.35 73.53
  Q 41.61 71.73 49.54 71.44
  Q 50.14 71.42 50.35 70.87
  C 50.79 69.76 51.64 68.86 51.66 67.63
  Z
  M 129.92 69.41
  C 130.30 69.95 130.44 70.67 130.88 71.17
  Q 131.14 71.48 131.54 71.49
  Q 139.43 71.62 146.59 73.66
  A 0.35 0.35 0.0 0 0 147.03 73.37
  C 148.64 60.76 148.08 43.03 140.29 32.87
  A 1.47 1.47 0.0 0 0 138.05 32.76
  C 131.18 40.09 129.35 55.02 129.32 65.09
  C 129.32 66.67 128.94 67.98 129.92 69.41
  Z"
/>
<path fill="#000000" d="
  M 83.46 175.21
  C 67.69 174.79 52.16 163.00 53.83 145.89
  Q 54.74 136.55 61.88 129.31
  C 76.58 114.42 102.64 114.22 118.00 128.21
  C 130.53 139.62 130.66 157.98 116.90 168.42
  C 106.77 176.11 95.57 175.52 83.46 175.21
  Z
  M 104.44 130.11
  Q 90.23 123.93 76.22 130.27
  C 65.90 134.94 57.70 147.75 66.47 158.05
  Q 72.97 165.67 84.82 166.12
  Q 90.75 166.35 96.84 166.11
  C 103.95 165.84 111.70 162.63 115.67 156.51
  C 122.52 145.97 114.31 134.41 104.44 130.11
  Z"
/>
<ellipse fill="#000000" cx="0.00" cy="0.00" transform="translate(44.52,129.04) rotate(120.7)" rx="9.66" ry="8.83"/>
<ellipse fill="#000000" cx="0.00" cy="0.00" transform="translate(136.48,129.04) rotate(59.4)" rx="9.66" ry="8.83"/>
<path fill="#000000" d="
  M 91.10 140.74
  C 93.33 138.97 97.38 138.54 98.33 141.88
  C 99.19 144.92 96.60 146.71 94.31 148.04
  A 1.17 1.17 0.0 0 0 93.76 149.31
  C 94.73 153.51 95.02 157.68 88.92 156.67
  C 84.71 155.98 86.56 151.44 86.76 148.91
  Q 86.81 148.29 86.26 148.01
  Q 84.77 147.24 83.51 146.11
  C 81.79 144.56 81.34 141.75 83.33 140.25
  Q 86.07 138.18 89.47 140.76
  Q 90.29 141.39 91.10 140.74
  Z"
/>
</svg>
